<?xml version="1.0" encoding="UTF-8" standalone="no"?>
<!DOCTYPE svg PUBLIC "-//W3C//DTD SVG 1.1//EN" "http://www.w3.org/Graphics/SVG/1.1/DTD/svg11.dtd">
<svg width="100%" height="100%" viewBox="0 0 740 359" version="1.1" xmlns="http://www.w3.org/2000/svg" xmlns:xlink="http://www.w3.org/1999/xlink" xml:space="preserve" xmlns:serif="http://www.serif.com/" style="fill-rule:evenodd;clip-rule:evenodd;stroke-linecap:round;stroke-linejoin:round;stroke-miterlimit:2;">
    <g transform="matrix(1,0,0,1,-194,-3538)">
        <g id="ONBOARD_SCRN_1" transform="matrix(1,0,0,1,-3825,2679)">
            <rect x="3825" y="0" width="1125" height="2436" style="fill:none;"/>
            <g transform="matrix(1,0,0,1,3750.93,127.669)">
                <path d="M348.477,879.044C348.477,866.169 353.039,856.075 362.164,848.762C371.289,841.45 382.32,837.794 395.258,837.794C407.883,837.794 418.883,841.341 428.258,848.434C437.633,855.528 442.32,865.762 442.32,879.137C442.32,891.825 437.727,901.934 428.539,909.466C419.352,916.997 408.227,920.762 395.164,920.762C382.414,920.762 371.445,917.184 362.258,910.028C353.07,902.872 348.477,892.544 348.477,879.044ZM380.633,878.106C380.633,890.106 381.742,898.497 383.961,903.278C386.18,908.059 390.039,910.45 395.539,910.45C399.977,910.45 403.524,908.45 406.18,904.45C408.836,900.45 410.164,891.919 410.164,878.856C410.164,866.981 408.977,858.934 406.602,854.716C404.227,850.497 400.477,848.387 395.352,848.387C391.289,848.387 387.82,850.184 384.945,853.778C382.07,857.372 380.633,865.481 380.633,878.106Z" style="fill:rgb(56,127,207);fill-rule:nonzero;stroke:rgb(56,127,207);stroke-width:4.5px;"/>
                <path d="M456.477,879.044C456.477,866.169 461.039,856.075 470.164,848.762C479.289,841.45 490.32,837.794 503.258,837.794C515.883,837.794 526.883,841.341 536.258,848.434C545.633,855.528 550.32,865.762 550.32,879.137C550.32,891.825 545.727,901.934 536.539,909.466C527.352,916.997 516.227,920.762 503.164,920.762C490.414,920.762 479.445,917.184 470.258,910.028C461.07,902.872 456.477,892.544 456.477,879.044ZM488.633,878.106C488.633,890.106 489.742,898.497 491.961,903.278C494.18,908.059 498.039,910.45 503.539,910.45C507.977,910.45 511.524,908.45 514.18,904.45C516.836,900.45 518.164,891.919 518.164,878.856C518.164,866.981 516.977,858.934 514.602,854.716C512.227,850.497 508.477,848.387 503.352,848.387C499.289,848.387 495.82,850.184 492.945,853.778C490.07,857.372 488.633,865.481 488.633,878.106Z" style="fill:rgb(56,127,207);fill-rule:nonzero;stroke:rgb(56,127,207);stroke-width:4.5px;"/>
                <path d="M602.727,909.981L602.727,940.544C602.727,945.169 603.461,948.387 604.93,950.2C606.399,952.012 609.727,952.919 614.914,952.919L617.914,952.919L617.914,962.95L559.602,962.95L559.602,952.919C564.977,952.919 568.461,952.091 570.055,950.434C571.649,948.778 572.445,945.481 572.445,940.544L572.445,867.044C572.445,862.294 571.695,859.028 570.195,857.247C568.695,855.466 565.164,854.575 559.602,854.575L559.602,844.637L600.289,837.794C601.539,842.231 602.164,846.7 602.164,851.2C606.602,846.7 611.274,843.341 616.18,841.122C621.086,838.903 626.227,837.794 631.602,837.794C641.664,837.794 650.289,841.528 657.477,848.997C664.664,856.466 668.258,866.262 668.258,878.387C668.258,890.887 664.461,901.075 656.867,908.95C649.274,916.825 640.32,920.762 630.008,920.762C625.195,920.762 620.524,919.856 615.992,918.044C611.461,916.231 607.039,913.544 602.727,909.981ZM602.727,898.637C605.227,901.262 607.867,903.247 610.649,904.591C613.43,905.934 616.32,906.606 619.32,906.606C625.008,906.606 629.258,904.372 632.07,899.903C634.883,895.434 636.289,888.731 636.289,879.794C636.289,870.419 634.977,863.403 632.352,858.747C629.727,854.091 625.789,851.762 620.539,851.762C616.914,851.762 613.43,853.028 610.086,855.559C606.742,858.091 604.289,860.887 602.727,863.95L602.727,898.637Z" style="fill:rgb(56,127,207);fill-rule:nonzero;stroke:rgb(56,127,207);stroke-width:4.5px;"/>
                <path d="M684.852,920.762L684.195,895.262L693.383,895.262C698.258,905.825 707.195,911.106 720.195,911.106C725.633,911.106 730.133,910.169 733.695,908.294C737.258,906.419 739.039,904.294 739.039,901.919C739.039,899.856 738.07,898.262 736.133,897.137C734.133,896.075 729.664,894.825 722.727,893.387C711.977,891.2 704.039,889.122 698.914,887.153C693.789,885.184 689.664,882.153 686.539,878.059C683.414,873.966 681.852,869.294 681.852,864.044C681.852,856.231 685.039,849.903 691.414,845.059C697.789,840.216 706.32,837.794 717.008,837.794C725.258,837.794 733.664,839.419 742.227,842.669C743.727,841.231 744.914,839.606 745.789,837.794L753.57,837.794L754.414,861.044L746.914,861.044C742.102,851.481 732.508,846.7 718.133,846.7C713.445,846.7 709.602,847.466 706.602,848.997C703.602,850.528 702.102,852.481 702.102,854.856C702.102,857.356 703.32,859.2 705.758,860.387C708.133,861.575 713.945,863.075 723.195,864.887C732.82,866.825 740.055,868.794 744.899,870.794C749.742,872.794 753.555,875.716 756.336,879.559C759.117,883.403 760.508,887.856 760.508,892.919C760.508,901.106 756.883,907.794 749.633,912.981C742.383,918.169 733.414,920.762 722.727,920.762C714.539,920.762 705.977,919.012 697.039,915.512C695.352,916.762 694.102,918.512 693.289,920.762L684.852,920.762Z" style="fill:rgb(56,127,207);fill-rule:nonzero;stroke:rgb(56,127,207);stroke-width:4.5px;"/>
                <path d="M783.758,805.262C783.758,800.637 785.414,796.653 788.727,793.309C792.039,789.966 796.008,788.294 800.633,788.294C805.32,788.294 809.289,789.95 812.539,793.262C815.789,796.575 817.414,800.575 817.414,805.262C817.414,809.95 815.774,813.95 812.492,817.262C809.211,820.575 805.258,822.231 800.633,822.231C795.82,822.231 791.805,820.528 788.586,817.122C785.367,813.716 783.758,809.762 783.758,805.262ZM815.352,837.794L815.352,895.262C815.352,900.012 816.102,903.278 817.602,905.059C819.102,906.841 822.602,907.731 828.102,907.731L828.102,917.669L770.727,917.669L770.727,907.731L772.883,907.731C778.195,907.731 781.555,906.794 782.961,904.919C784.367,903.044 785.07,899.825 785.07,895.262L785.07,867.325C785.07,862.7 784.352,859.466 782.914,857.622C781.477,855.778 778.133,854.856 772.883,854.856L770.727,854.856L770.727,844.919L815.352,837.794Z" style="fill:rgb(56,127,207);fill-rule:nonzero;stroke:rgb(56,127,207);stroke-width:4.5px;"/>
                <path d="M872.352,878.387C872.352,888.575 874.086,896.231 877.555,901.356C881.024,906.481 886.227,909.044 893.164,909.044C900.539,909.044 907.32,905.294 913.508,897.794L922.227,903.044C918.664,908.169 913.555,912.403 906.899,915.747C900.242,919.091 892.883,920.762 884.82,920.762C872.445,920.762 861.852,916.997 853.039,909.466C844.227,901.934 839.82,891.762 839.82,878.95C839.82,866.137 844.086,856.075 852.617,848.762C861.149,841.45 871.414,837.794 883.414,837.794C895.477,837.794 905.367,841.153 913.086,847.872C920.805,854.591 924.664,864.762 924.664,878.387L872.352,878.387ZM872.258,868.919L895.977,868.919C895.602,855.106 891.57,848.2 883.883,848.2C880.008,848.2 877.102,849.919 875.164,853.356C873.227,856.794 872.258,861.981 872.258,868.919Z" style="fill:rgb(56,127,207);fill-rule:nonzero;stroke:rgb(56,127,207);stroke-width:4.5px;"/>
            </g>
            <g transform="matrix(1,0,0,1,4004.66,-2393.7)">
                <path d="M85.212,3334.68L91.189,3334.68L103.001,3294.04L103.142,3294.04L114.954,3334.68L120.931,3334.68L134.747,3283.95L128.138,3283.95L117.907,3325.61L117.767,3325.61L106.271,3283.95L99.872,3283.95L88.376,3325.61L88.236,3325.61L78.005,3283.95L71.396,3283.95L85.212,3334.68Z" style="fill:rgb(207,207,207);fill-rule:nonzero;"/>
                <path d="M151.482,3335.38C159.462,3335.38 165.439,3330.6 166.634,3324.55L166.704,3324.2L160.693,3324.2L160.587,3324.52C159.532,3327.65 156.263,3329.97 151.622,3329.97C145.118,3329.97 140.97,3325.57 140.829,3318.05L167.161,3318.05L167.161,3315.8C167.161,3304.83 161.079,3297.41 151.095,3297.41C141.111,3297.41 134.642,3305.18 134.642,3316.5L134.642,3316.54C134.642,3328.03 140.97,3335.38 151.482,3335.38ZM151.06,3302.83C156.404,3302.83 160.341,3306.17 160.939,3313.27L140.935,3313.27C141.603,3306.45 145.751,3302.83 151.06,3302.83Z" style="fill:rgb(207,207,207);fill-rule:nonzero;"/>
                <rect x="173.63" y="3283.95" width="6.117" height="50.73" style="fill:rgb(207,207,207);fill-rule:nonzero;"/>
                <path d="M203.161,3335.38C211.423,3335.38 217.435,3330 218.419,3323.04L218.454,3322.8L212.443,3322.8L212.372,3323.08C211.353,3327.16 208.154,3329.97 203.161,3329.97C196.833,3329.97 192.474,3324.94 192.474,3316.43L192.474,3316.4C192.474,3308.1 196.728,3302.83 203.091,3302.83C208.47,3302.83 211.423,3306.06 212.337,3309.72L212.407,3310L218.384,3310L218.349,3309.72C217.575,3303.46 212.197,3297.41 203.091,3297.41C192.931,3297.41 186.216,3304.8 186.216,3316.33L186.216,3316.36C186.216,3328 192.79,3335.38 203.161,3335.38Z" style="fill:rgb(207,207,207);fill-rule:nonzero;"/>
                <path d="M239.232,3335.38C249.322,3335.38 256.142,3328.07 256.142,3316.4L256.142,3316.33C256.142,3304.66 249.286,3297.41 239.197,3297.41C229.107,3297.41 222.286,3304.69 222.286,3316.33L222.286,3316.4C222.286,3328.03 229.072,3335.38 239.232,3335.38ZM239.267,3329.97C232.798,3329.97 228.544,3325.01 228.544,3316.4L228.544,3316.33C228.544,3307.78 232.833,3302.83 239.197,3302.83C245.665,3302.83 249.884,3307.75 249.884,3316.33L249.884,3316.4C249.884,3324.97 245.7,3329.97 239.267,3329.97Z" style="fill:rgb(207,207,207);fill-rule:nonzero;"/>
                <path d="M262.294,3334.68L268.411,3334.68L268.411,3311.76C268.411,3306.66 271.927,3302.83 276.779,3302.83C281.314,3302.83 284.267,3305.74 284.267,3310.17L284.267,3334.68L290.384,3334.68L290.384,3311.44C290.384,3306.45 293.794,3302.83 298.646,3302.83C303.462,3302.83 306.239,3305.82 306.239,3310.84L306.239,3334.68L312.357,3334.68L312.357,3309.44C312.357,3302.16 307.681,3297.41 300.439,3297.41C295.306,3297.41 291.017,3300.05 288.978,3304.44L288.837,3304.44C287.255,3299.98 283.564,3297.41 278.572,3297.41C273.861,3297.41 270.204,3299.84 268.552,3303.46L268.411,3303.46L268.411,3298.12L262.294,3298.12L262.294,3334.68Z" style="fill:rgb(207,207,207);fill-rule:nonzero;"/>
                <path d="M335.173,3335.38C343.154,3335.38 349.13,3330.6 350.325,3324.55L350.396,3324.2L344.384,3324.2L344.279,3324.52C343.224,3327.65 339.954,3329.97 335.314,3329.97C328.81,3329.97 324.661,3325.57 324.521,3318.05L350.853,3318.05L350.853,3315.8C350.853,3304.83 344.771,3297.41 334.786,3297.41C324.802,3297.41 318.333,3305.18 318.333,3316.5L318.333,3316.54C318.333,3328.03 324.661,3335.38 335.173,3335.38ZM334.751,3302.83C340.095,3302.83 344.032,3306.17 344.63,3313.27L324.626,3313.27C325.294,3306.45 329.443,3302.83 334.751,3302.83Z" style="fill:rgb(207,207,207);fill-rule:nonzero;"/>
                <path d="M383.654,3335.38C384.849,3335.38 386.15,3335.24 386.923,3335.14L386.923,3330.18C386.396,3330.21 385.693,3330.32 384.954,3330.32C381.685,3330.32 379.962,3329.23 379.962,3325.33L379.962,3303.18L386.923,3303.18L386.923,3298.12L379.962,3298.12L379.962,3288.24L373.634,3288.24L373.634,3298.12L368.29,3298.12L368.29,3303.18L373.634,3303.18L373.634,3325.36C373.634,3332.36 376.939,3335.38 383.654,3335.38Z" style="fill:rgb(207,207,207);fill-rule:nonzero;"/>
                <path d="M407.56,3335.38C417.65,3335.38 424.47,3328.07 424.47,3316.4L424.47,3316.33C424.47,3304.66 417.614,3297.41 407.525,3297.41C397.435,3297.41 390.614,3304.69 390.614,3316.33L390.614,3316.4C390.614,3328.03 397.4,3335.38 407.56,3335.38ZM407.595,3329.97C401.126,3329.97 396.872,3325.01 396.872,3316.4L396.872,3316.33C396.872,3307.78 401.161,3302.83 407.525,3302.83C413.993,3302.83 418.212,3307.75 418.212,3316.33L418.212,3316.4C418.212,3324.97 414.029,3329.97 407.595,3329.97Z" style="fill:rgb(207,207,207);fill-rule:nonzero;"/>
            </g>
            <g transform="matrix(1.38779,0,0,1.38779,3507.87,-1430.08)">
                <path d="M390.147,1898.34L396.053,1898.34L396.053,1865.38L407.681,1865.38L407.681,1860.3L378.492,1860.3L378.492,1865.38L390.147,1865.38L390.147,1898.34Z" style="fill:none;fill-rule:nonzero;stroke:rgb(56,127,207);stroke-width:0.72px;"/>
                <path d="M390.147,1898.34L396.053,1898.34L396.053,1865.38L407.681,1865.38L407.681,1860.3L378.492,1860.3L378.492,1865.38L390.147,1865.38L390.147,1898.34Z" style="fill:white;fill-rule:nonzero;"/>
                <path d="M412.005,1898.34L417.7,1898.34L417.7,1882.29C417.7,1877.96 420.311,1874.95 424.239,1874.95C428.247,1874.95 430.567,1877.7 430.567,1882.29L430.567,1898.34L436.263,1898.34L436.263,1881.2C436.263,1874.51 432.36,1870.08 426.428,1870.08C422.288,1870.08 419.309,1871.95 417.832,1875.17L417.7,1875.17L417.7,1860.3L412.005,1860.3L412.005,1898.34Z" style="fill:none;fill-rule:nonzero;stroke:rgb(56,127,207);stroke-width:0.72px;"/>
                <path d="M412.005,1898.34L417.7,1898.34L417.7,1882.29C417.7,1877.96 420.311,1874.95 424.239,1874.95C428.247,1874.95 430.567,1877.7 430.567,1882.29L430.567,1898.34L436.263,1898.34L436.263,1881.2C436.263,1874.51 432.36,1870.08 426.428,1870.08C422.288,1870.08 419.309,1871.95 417.832,1875.17L417.7,1875.17L417.7,1860.3L412.005,1860.3L412.005,1898.34Z" style="fill:white;fill-rule:nonzero;"/>
                <path d="M453.612,1898.9C460.336,1898.9 464.607,1894.89 465.504,1890.49L465.557,1890.19L460.151,1890.19L460.072,1890.41C459.36,1892.49 457.119,1894.23 453.744,1894.23C449.209,1894.23 446.335,1891.17 446.23,1885.92L465.873,1885.92L465.873,1884C465.873,1875.67 461.101,1870.08 453.322,1870.08C445.544,1870.08 440.534,1875.88 440.534,1884.55L440.534,1884.58C440.534,1893.33 445.465,1898.9 453.612,1898.9ZM453.349,1874.74C457.066,1874.74 459.756,1877.09 460.231,1881.89L446.309,1881.89C446.81,1877.25 449.657,1874.74 453.349,1874.74Z" style="fill:none;fill-rule:nonzero;stroke:rgb(56,127,207);stroke-width:0.72px;"/>
                <path d="M453.612,1898.9C460.336,1898.9 464.607,1894.89 465.504,1890.49L465.557,1890.19L460.151,1890.19L460.072,1890.41C459.36,1892.49 457.119,1894.23 453.744,1894.23C449.209,1894.23 446.335,1891.17 446.23,1885.92L465.873,1885.92L465.873,1884C465.873,1875.67 461.101,1870.08 453.322,1870.08C445.544,1870.08 440.534,1875.88 440.534,1884.55L440.534,1884.58C440.534,1893.33 445.465,1898.9 453.612,1898.9ZM453.349,1874.74C457.066,1874.74 459.756,1877.09 460.231,1881.89L446.309,1881.89C446.81,1877.25 449.657,1874.74 453.349,1874.74Z" style="fill:white;fill-rule:nonzero;"/>
                <path d="M481.904,1898.34L487.811,1898.34L487.811,1882.42L504.158,1882.42L504.158,1877.43L487.811,1877.43L487.811,1865.38L505.661,1865.38L505.661,1860.3L481.904,1860.3L481.904,1898.34Z" style="fill:none;fill-rule:nonzero;stroke:rgb(56,127,207);stroke-width:0.72px;"/>
                <path d="M481.904,1898.34L487.811,1898.34L487.811,1882.42L504.158,1882.42L504.158,1877.43L487.811,1877.43L487.811,1865.38L505.661,1865.38L505.661,1860.3L481.904,1860.3L481.904,1898.34Z" style="fill:white;fill-rule:nonzero;"/>
                <path d="M521.086,1898.9C529.023,1898.9 534.243,1893.41 534.243,1884.47L534.243,1884.42C534.243,1875.54 528.97,1870.08 521.06,1870.08C513.176,1870.08 507.929,1875.56 507.929,1884.42L507.929,1884.47C507.929,1893.38 513.123,1898.9 521.086,1898.9ZM521.112,1894.12C516.656,1894.12 513.756,1890.62 513.756,1884.47L513.756,1884.42C513.756,1878.36 516.683,1874.85 521.06,1874.85C525.516,1874.85 528.416,1878.36 528.416,1884.42L528.416,1884.47C528.416,1890.59 525.568,1894.12 521.112,1894.12Z" style="fill:none;fill-rule:nonzero;stroke:rgb(56,127,207);stroke-width:0.72px;"/>
                <path d="M521.086,1898.9C529.023,1898.9 534.243,1893.41 534.243,1884.47L534.243,1884.42C534.243,1875.54 528.97,1870.08 521.06,1870.08C513.176,1870.08 507.929,1875.56 507.929,1884.42L507.929,1884.47C507.929,1893.38 513.123,1898.9 521.086,1898.9ZM521.112,1894.12C516.656,1894.12 513.756,1890.62 513.756,1884.47L513.756,1884.42C513.756,1878.36 516.683,1874.85 521.06,1874.85C525.516,1874.85 528.416,1878.36 528.416,1884.42L528.416,1884.47C528.416,1890.59 525.568,1894.12 521.112,1894.12Z" style="fill:white;fill-rule:nonzero;"/>
                <path d="M538.647,1898.34L544.342,1898.34L544.342,1881.81C544.342,1877.67 546.609,1875.27 550.274,1875.27C551.382,1875.27 552.384,1875.4 552.832,1875.59L552.832,1870.29C552.384,1870.21 551.672,1870.08 550.855,1870.08C547.69,1870.08 545.37,1872.11 544.474,1875.35L544.342,1875.35L544.342,1870.6L538.647,1870.6L538.647,1898.34Z" style="fill:none;fill-rule:nonzero;stroke:rgb(56,127,207);stroke-width:0.72px;"/>
                <path d="M538.647,1898.34L544.342,1898.34L544.342,1881.81C544.342,1877.67 546.609,1875.27 550.274,1875.27C551.382,1875.27 552.384,1875.4 552.832,1875.59L552.832,1870.29C552.384,1870.21 551.672,1870.08 550.855,1870.08C547.69,1870.08 545.37,1872.11 544.474,1875.35L544.342,1875.35L544.342,1870.6L538.647,1870.6L538.647,1898.34Z" style="fill:white;fill-rule:nonzero;"/>
                <path d="M567.334,1908.12C575.165,1908.12 580.069,1903.91 580.069,1897.58L580.069,1870.6L574.348,1870.6L574.348,1875.32L574.216,1875.32C572.581,1872.19 569.523,1870.08 565.62,1870.08C558.58,1870.08 553.94,1875.54 553.94,1884.24L553.94,1884.26C553.94,1892.91 558.527,1898.37 565.488,1898.37C569.47,1898.37 572.634,1896.44 574.216,1893.44L574.348,1893.44L574.348,1897.24C574.348,1901.11 571.843,1903.54 567.308,1903.54C563.748,1903.54 561.349,1902.32 560.584,1900.56L560.479,1900.35L554.836,1900.35L554.862,1900.58C555.706,1904.83 560.215,1908.12 567.334,1908.12ZM567.097,1893.73C562.588,1893.73 559.767,1890.14 559.767,1884.34L559.767,1884.32C559.767,1878.59 562.588,1874.95 567.097,1874.95C571.421,1874.95 574.348,1878.62 574.348,1884.32L574.348,1884.34C574.348,1890.06 571.447,1893.73 567.097,1893.73Z" style="fill:none;fill-rule:nonzero;stroke:rgb(56,127,207);stroke-width:0.72px;"/>
                <path d="M567.334,1908.12C575.165,1908.12 580.069,1903.91 580.069,1897.58L580.069,1870.6L574.348,1870.6L574.348,1875.32L574.216,1875.32C572.581,1872.19 569.523,1870.08 565.62,1870.08C558.58,1870.08 553.94,1875.54 553.94,1884.24L553.94,1884.26C553.94,1892.91 558.527,1898.37 565.488,1898.37C569.47,1898.37 572.634,1896.44 574.216,1893.44L574.348,1893.44L574.348,1897.24C574.348,1901.11 571.843,1903.54 567.308,1903.54C563.748,1903.54 561.349,1902.32 560.584,1900.56L560.479,1900.35L554.836,1900.35L554.862,1900.58C555.706,1904.83 560.215,1908.12 567.334,1908.12ZM567.097,1893.73C562.588,1893.73 559.767,1890.14 559.767,1884.34L559.767,1884.32C559.767,1878.59 562.588,1874.95 567.097,1874.95C571.421,1874.95 574.348,1878.62 574.348,1884.32L574.348,1884.34C574.348,1890.06 571.447,1893.73 567.097,1893.73Z" style="fill:white;fill-rule:nonzero;"/>
                <path d="M597.524,1898.9C604.248,1898.9 608.52,1894.89 609.416,1890.49L609.469,1890.19L604.064,1890.19L603.984,1890.41C603.273,1892.49 601.031,1894.23 597.656,1894.23C593.121,1894.23 590.247,1891.17 590.142,1885.92L609.785,1885.92L609.785,1884C609.785,1875.67 605.013,1870.08 597.234,1870.08C589.456,1870.08 584.446,1875.88 584.446,1884.55L584.446,1884.58C584.446,1893.33 589.377,1898.9 597.524,1898.9ZM597.261,1874.74C600.979,1874.74 603.668,1877.09 604.143,1881.89L590.221,1881.89C590.722,1877.25 593.569,1874.74 597.261,1874.74Z" style="fill:none;fill-rule:nonzero;stroke:rgb(56,127,207);stroke-width:0.72px;"/>
                <path d="M597.524,1898.9C604.248,1898.9 608.52,1894.89 609.416,1890.49L609.469,1890.19L604.064,1890.19L603.984,1890.41C603.273,1892.49 601.031,1894.23 597.656,1894.23C593.121,1894.23 590.247,1891.17 590.142,1885.92L609.785,1885.92L609.785,1884C609.785,1875.67 605.013,1870.08 597.234,1870.08C589.456,1870.08 584.446,1875.88 584.446,1884.55L584.446,1884.58C584.446,1893.33 589.377,1898.9 597.524,1898.9ZM597.261,1874.74C600.979,1874.74 603.668,1877.09 604.143,1881.89L590.221,1881.89C590.722,1877.25 593.569,1874.74 597.261,1874.74Z" style="fill:white;fill-rule:nonzero;"/>
                <path d="M623.918,1898.9C625.078,1898.9 626.159,1898.76 626.818,1898.66L626.818,1894.26C626.397,1894.31 625.896,1894.36 625.289,1894.36C622.89,1894.36 621.624,1893.52 621.624,1890.7L621.624,1875.14L626.818,1875.14L626.818,1870.6L621.624,1870.6L621.624,1863.38L615.797,1863.38L615.797,1870.6L611.815,1870.6L611.815,1875.14L615.797,1875.14L615.797,1891.04C615.797,1896.58 618.434,1898.9 623.918,1898.9Z" style="fill:none;fill-rule:nonzero;stroke:rgb(56,127,207);stroke-width:0.72px;"/>
                <path d="M623.918,1898.9C625.078,1898.9 626.159,1898.76 626.818,1898.66L626.818,1894.26C626.397,1894.31 625.896,1894.36 625.289,1894.36C622.89,1894.36 621.624,1893.52 621.624,1890.7L621.624,1875.14L626.818,1875.14L626.818,1870.6L621.624,1870.6L621.624,1863.38L615.797,1863.38L615.797,1870.6L611.815,1870.6L611.815,1875.14L615.797,1875.14L615.797,1891.04C615.797,1896.58 618.434,1898.9 623.918,1898.9Z" style="fill:white;fill-rule:nonzero;"/>
                <path d="M641.241,1898.9C642.401,1898.9 643.482,1898.76 644.142,1898.66L644.142,1894.26C643.72,1894.31 643.219,1894.36 642.612,1894.36C640.213,1894.36 638.947,1893.52 638.947,1890.7L638.947,1875.14L644.142,1875.14L644.142,1870.6L638.947,1870.6L638.947,1863.38L633.12,1863.38L633.12,1870.6L629.139,1870.6L629.139,1875.14L633.12,1875.14L633.12,1891.04C633.12,1896.58 635.757,1898.9 641.241,1898.9Z" style="fill:none;fill-rule:nonzero;stroke:rgb(56,127,207);stroke-width:0.72px;"/>
                <path d="M641.241,1898.9C642.401,1898.9 643.482,1898.76 644.142,1898.66L644.142,1894.26C643.72,1894.31 643.219,1894.36 642.612,1894.36C640.213,1894.36 638.947,1893.52 638.947,1890.7L638.947,1875.14L644.142,1875.14L644.142,1870.6L638.947,1870.6L638.947,1863.38L633.12,1863.38L633.12,1870.6L629.139,1870.6L629.139,1875.14L633.12,1875.14L633.12,1891.04C633.12,1896.58 635.757,1898.9 641.241,1898.9Z" style="fill:white;fill-rule:nonzero;"/>
                <path d="M660.015,1898.9C666.738,1898.9 671.01,1894.89 671.906,1890.49L671.959,1890.19L666.554,1890.19L666.475,1890.41C665.763,1892.49 663.522,1894.23 660.147,1894.23C655.611,1894.23 652.737,1891.17 652.632,1885.92L672.275,1885.92L672.275,1884C672.275,1875.67 667.503,1870.08 659.725,1870.08C651.946,1870.08 646.937,1875.88 646.937,1884.55L646.937,1884.58C646.937,1893.33 651.867,1898.9 660.015,1898.9ZM659.751,1874.74C663.469,1874.74 666.158,1877.09 666.633,1881.89L652.711,1881.89C653.212,1877.25 656.06,1874.74 659.751,1874.74Z" style="fill:none;fill-rule:nonzero;stroke:rgb(56,127,207);stroke-width:0.72px;"/>
                <path d="M660.015,1898.9C666.738,1898.9 671.01,1894.89 671.906,1890.49L671.959,1890.19L666.554,1890.19L666.475,1890.41C665.763,1892.49 663.522,1894.23 660.147,1894.23C655.611,1894.23 652.737,1891.17 652.632,1885.92L672.275,1885.92L672.275,1884C672.275,1875.67 667.503,1870.08 659.725,1870.08C651.946,1870.08 646.937,1875.88 646.937,1884.55L646.937,1884.58C646.937,1893.33 651.867,1898.9 660.015,1898.9ZM659.751,1874.74C663.469,1874.74 666.158,1877.09 666.633,1881.89L652.711,1881.89C653.212,1877.25 656.06,1874.74 659.751,1874.74Z" style="fill:white;fill-rule:nonzero;"/>
                <path d="M676.679,1898.34L682.374,1898.34L682.374,1881.81C682.374,1877.67 684.642,1875.27 688.307,1875.27C689.414,1875.27 690.416,1875.4 690.864,1875.59L690.864,1870.29C690.416,1870.21 689.704,1870.08 688.887,1870.08C685.723,1870.08 683.402,1872.11 682.506,1875.35L682.374,1875.35L682.374,1870.6L676.679,1870.6L676.679,1898.34Z" style="fill:none;fill-rule:nonzero;stroke:rgb(56,127,207);stroke-width:0.72px;"/>
                <path d="M676.679,1898.34L682.374,1898.34L682.374,1881.81C682.374,1877.67 684.642,1875.27 688.307,1875.27C689.414,1875.27 690.416,1875.4 690.864,1875.59L690.864,1870.29C690.416,1870.21 689.704,1870.08 688.887,1870.08C685.723,1870.08 683.402,1872.11 682.506,1875.35L682.374,1875.35L682.374,1870.6L676.679,1870.6L676.679,1898.34Z" style="fill:white;fill-rule:nonzero;"/>
                <path d="M696.56,1874.22L700.62,1874.22L701.227,1860.3L695.953,1860.3L696.56,1874.22Z" style="fill:none;fill-rule:nonzero;stroke:rgb(56,127,207);stroke-width:0.72px;"/>
                <path d="M696.56,1874.22L700.62,1874.22L701.227,1860.3L695.953,1860.3L696.56,1874.22Z" style="fill:white;fill-rule:nonzero;"/>
                <path d="M718.814,1898.9C725.353,1898.9 730.099,1895.42 730.099,1890.35L730.099,1890.33C730.099,1886.35 727.937,1884.1 722.268,1882.79L717.759,1881.76C714.779,1881.05 713.646,1879.88 713.646,1878.17L713.646,1878.14C713.646,1875.93 715.57,1874.48 718.629,1874.48C721.846,1874.48 723.744,1876.17 724.087,1878.59L724.113,1878.78L729.466,1878.78L729.44,1878.46C729.149,1873.74 725.194,1870.08 718.629,1870.08C712.248,1870.08 707.924,1873.48 707.924,1878.43L707.924,1878.46C707.924,1882.5 710.534,1885.03 715.808,1886.24L720.343,1887.27C723.322,1887.98 724.324,1889.01 724.324,1890.8L724.324,1890.83C724.324,1893.07 722.268,1894.49 718.84,1894.49C715.333,1894.49 713.435,1892.99 712.907,1890.43L712.855,1890.17L707.212,1890.17L707.238,1890.41C707.818,1895.47 711.879,1898.9 718.814,1898.9Z" style="fill:none;fill-rule:nonzero;stroke:rgb(56,127,207);stroke-width:0.72px;"/>
                <path d="M718.814,1898.9C725.353,1898.9 730.099,1895.42 730.099,1890.35L730.099,1890.33C730.099,1886.35 727.937,1884.1 722.268,1882.79L717.759,1881.76C714.779,1881.05 713.646,1879.88 713.646,1878.17L713.646,1878.14C713.646,1875.93 715.57,1874.48 718.629,1874.48C721.846,1874.48 723.744,1876.17 724.087,1878.59L724.113,1878.78L729.466,1878.78L729.44,1878.46C729.149,1873.74 725.194,1870.08 718.629,1870.08C712.248,1870.08 707.924,1873.48 707.924,1878.43L707.924,1878.46C707.924,1882.5 710.534,1885.03 715.808,1886.24L720.343,1887.27C723.322,1887.98 724.324,1889.01 724.324,1890.8L724.324,1890.83C724.324,1893.07 722.268,1894.49 718.84,1894.49C715.333,1894.49 713.435,1892.99 712.907,1890.43L712.855,1890.17L707.212,1890.17L707.238,1890.41C707.818,1895.47 711.879,1898.9 718.814,1898.9Z" style="fill:white;fill-rule:nonzero;"/>
                <path d="M762.504,1898.98C772.814,1898.98 778.904,1892.83 778.904,1882.52L778.904,1878.62L763.084,1878.62L763.084,1883.44L773.077,1883.44L773.077,1884.08C772.998,1889.85 768.727,1893.76 762.557,1893.76C755.306,1893.76 750.771,1888.22 750.771,1879.12L750.771,1879.09C750.771,1870.18 755.174,1864.88 762.451,1864.88C767.408,1864.88 770.862,1867.44 772.471,1871.84L772.55,1872.13L778.614,1872.13L778.509,1871.66C776.927,1864.8 771.337,1859.66 762.425,1859.66C751.614,1859.66 744.759,1867.12 744.759,1879.12L744.759,1879.15C744.759,1891.38 751.614,1898.98 762.504,1898.98Z" style="fill:none;fill-rule:nonzero;stroke:rgb(56,127,207);stroke-width:0.72px;"/>
                <path d="M762.504,1898.98C772.814,1898.98 778.904,1892.83 778.904,1882.52L778.904,1878.62L763.084,1878.62L763.084,1883.44L773.077,1883.44L773.077,1884.08C772.998,1889.85 768.727,1893.76 762.557,1893.76C755.306,1893.76 750.771,1888.22 750.771,1879.12L750.771,1879.09C750.771,1870.18 755.174,1864.88 762.451,1864.88C767.408,1864.88 770.862,1867.44 772.471,1871.84L772.55,1872.13L778.614,1872.13L778.509,1871.66C776.927,1864.8 771.337,1859.66 762.425,1859.66C751.614,1859.66 744.759,1867.12 744.759,1879.12L744.759,1879.15C744.759,1891.38 751.614,1898.98 762.504,1898.98Z" style="fill:white;fill-rule:nonzero;"/>
                <path d="M795.832,1898.9C802.556,1898.9 806.827,1894.89 807.724,1890.49L807.776,1890.19L802.371,1890.19L802.292,1890.41C801.58,1892.49 799.339,1894.23 795.964,1894.23C791.429,1894.23 788.555,1891.17 788.449,1885.92L808.093,1885.92L808.093,1884C808.093,1875.67 803.32,1870.08 795.542,1870.08C787.764,1870.08 782.754,1875.88 782.754,1884.55L782.754,1884.58C782.754,1893.33 787.685,1898.9 795.832,1898.9ZM795.568,1874.74C799.286,1874.74 801.976,1877.09 802.45,1881.89L788.528,1881.89C789.029,1877.25 791.877,1874.74 795.568,1874.74Z" style="fill:none;fill-rule:nonzero;stroke:rgb(56,127,207);stroke-width:0.72px;"/>
                <path d="M795.832,1898.9C802.556,1898.9 806.827,1894.89 807.724,1890.49L807.776,1890.19L802.371,1890.19L802.292,1890.41C801.58,1892.49 799.339,1894.23 795.964,1894.23C791.429,1894.23 788.555,1891.17 788.449,1885.92L808.093,1885.92L808.093,1884C808.093,1875.67 803.32,1870.08 795.542,1870.08C787.764,1870.08 782.754,1875.88 782.754,1884.55L782.754,1884.58C782.754,1893.33 787.685,1898.9 795.832,1898.9ZM795.568,1874.74C799.286,1874.74 801.976,1877.09 802.45,1881.89L788.528,1881.89C789.029,1877.25 791.877,1874.74 795.568,1874.74Z" style="fill:white;fill-rule:nonzero;"/>
                <path d="M822.226,1898.9C823.386,1898.9 824.467,1898.76 825.126,1898.66L825.126,1894.26C824.704,1894.31 824.203,1894.36 823.597,1894.36C821.197,1894.36 819.932,1893.52 819.932,1890.7L819.932,1875.14L825.126,1875.14L825.126,1870.6L819.932,1870.6L819.932,1863.38L814.105,1863.38L814.105,1870.6L810.123,1870.6L810.123,1875.14L814.105,1875.14L814.105,1891.04C814.105,1896.58 816.741,1898.9 822.226,1898.9Z" style="fill:none;fill-rule:nonzero;stroke:rgb(56,127,207);stroke-width:0.72px;"/>
                <path d="M822.226,1898.9C823.386,1898.9 824.467,1898.76 825.126,1898.66L825.126,1894.26C824.704,1894.31 824.203,1894.36 823.597,1894.36C821.197,1894.36 819.932,1893.52 819.932,1890.7L819.932,1875.14L825.126,1875.14L825.126,1870.6L819.932,1870.6L819.932,1863.38L814.105,1863.38L814.105,1870.6L810.123,1870.6L810.123,1875.14L814.105,1875.14L814.105,1891.04C814.105,1896.58 816.741,1898.9 822.226,1898.9Z" style="fill:white;fill-rule:nonzero;"/>
                <path d="M839.549,1898.9C840.709,1898.9 841.79,1898.76 842.449,1898.66L842.449,1894.26C842.027,1894.31 841.526,1894.36 840.92,1894.36C838.521,1894.36 837.255,1893.52 837.255,1890.7L837.255,1875.14L842.449,1875.14L842.449,1870.6L837.255,1870.6L837.255,1863.38L831.428,1863.38L831.428,1870.6L827.446,1870.6L827.446,1875.14L831.428,1875.14L831.428,1891.04C831.428,1896.58 834.065,1898.9 839.549,1898.9Z" style="fill:none;fill-rule:nonzero;stroke:rgb(56,127,207);stroke-width:0.72px;"/>
                <path d="M839.549,1898.9C840.709,1898.9 841.79,1898.76 842.449,1898.66L842.449,1894.26C842.027,1894.31 841.526,1894.36 840.92,1894.36C838.521,1894.36 837.255,1893.52 837.255,1890.7L837.255,1875.14L842.449,1875.14L842.449,1870.6L837.255,1870.6L837.255,1863.38L831.428,1863.38L831.428,1870.6L827.446,1870.6L827.446,1875.14L831.428,1875.14L831.428,1891.04C831.428,1896.58 834.065,1898.9 839.549,1898.9Z" style="fill:white;fill-rule:nonzero;"/>
                <path d="M858.322,1898.9C865.046,1898.9 869.317,1894.89 870.214,1890.49L870.267,1890.19L864.861,1890.19L864.782,1890.41C864.07,1892.49 861.829,1894.23 858.454,1894.23C853.919,1894.23 851.045,1891.17 850.94,1885.92L870.583,1885.92L870.583,1884C870.583,1875.67 865.811,1870.08 858.032,1870.08C850.254,1870.08 845.244,1875.88 845.244,1884.55L845.244,1884.58C845.244,1893.33 850.175,1898.9 858.322,1898.9ZM858.059,1874.74C861.776,1874.74 864.466,1877.09 864.94,1881.89L851.019,1881.89C851.52,1877.25 854.367,1874.74 858.059,1874.74Z" style="fill:none;fill-rule:nonzero;stroke:rgb(56,127,207);stroke-width:0.72px;"/>
                <path d="M858.322,1898.9C865.046,1898.9 869.317,1894.89 870.214,1890.49L870.267,1890.19L864.861,1890.19L864.782,1890.41C864.07,1892.49 861.829,1894.23 858.454,1894.23C853.919,1894.23 851.045,1891.17 850.94,1885.92L870.583,1885.92L870.583,1884C870.583,1875.67 865.811,1870.08 858.032,1870.08C850.254,1870.08 845.244,1875.88 845.244,1884.55L845.244,1884.58C845.244,1893.33 850.175,1898.9 858.322,1898.9ZM858.059,1874.74C861.776,1874.74 864.466,1877.09 864.94,1881.89L851.019,1881.89C851.52,1877.25 854.367,1874.74 858.059,1874.74Z" style="fill:white;fill-rule:nonzero;"/>
                <path d="M874.986,1898.34L880.682,1898.34L880.682,1881.81C880.682,1877.67 882.949,1875.27 886.614,1875.27C887.722,1875.27 888.724,1875.4 889.172,1875.59L889.172,1870.29C888.724,1870.21 888.012,1870.08 887.194,1870.08C884.03,1870.08 881.71,1872.11 880.814,1875.35L880.682,1875.35L880.682,1870.6L874.986,1870.6L874.986,1898.34Z" style="fill:none;fill-rule:nonzero;stroke:rgb(56,127,207);stroke-width:0.72px;"/>
                <path d="M874.986,1898.34L880.682,1898.34L880.682,1881.81C880.682,1877.67 882.949,1875.27 886.614,1875.27C887.722,1875.27 888.724,1875.4 889.172,1875.59L889.172,1870.29C888.724,1870.21 888.012,1870.08 887.194,1870.08C884.03,1870.08 881.71,1872.11 880.814,1875.35L880.682,1875.35L880.682,1870.6L874.986,1870.6L874.986,1898.34Z" style="fill:white;fill-rule:nonzero;"/>
            </g>
        </g>
    </g>
</svg>
