<?xml version="1.0" encoding="UTF-8" standalone="no"?>
<!DOCTYPE svg PUBLIC "-//W3C//DTD SVG 1.1//EN" "http://www.w3.org/Graphics/SVG/1.1/DTD/svg11.dtd">
<svg width="100%" height="100%" viewBox="0 0 671 686" version="1.1" xmlns="http://www.w3.org/2000/svg" xmlns:xlink="http://www.w3.org/1999/xlink" xml:space="preserve" xmlns:serif="http://www.serif.com/" style="fill-rule:evenodd;clip-rule:evenodd;stroke-linecap:round;stroke-linejoin:round;stroke-miterlimit:1.5;">
    <g transform="matrix(1,0,0,1,-2789,-3221)">
        <g id="ONBOARD_SCRN_3" transform="matrix(1,0,0,1,-3825,2679)">
            <rect x="6375" y="0" width="1125" height="2436" style="fill:none;"/>
            <g transform="matrix(0.60616,0,0,0.60616,6623.47,563.347)">
                <g transform="matrix(0.865385,0,0,0.924658,83.0769,44.3836)">
                    <path d="M1152,139.336C1152,35.873 1062.38,-48 951.833,-48L104.167,-48C-6.382,-48 -96,35.873 -96,139.336L-96,932.664C-96,1036.13 -6.382,1120 104.167,1120L951.833,1120C1062.38,1120 1152,1036.13 1152,932.664L1152,139.336Z" style="fill:rgb(56,127,207);"/>
                </g>
                <path d="M790.044,894.533L505.61,1080L173.221,1080C77.554,1080 -0,1002.45 0,906.779L0,358.493L260,185C224.57,221.874 199.921,244.555 176.616,284.213C106.266,403.923 89.535,550.748 150.565,700.63L77.108,919.568L136.251,998.586L369.769,922.927C532.464,977.335 671.714,965.484 790.044,894.533L820,875C810.348,881.801 800.464,888.262 790.348,894.351L790.044,894.533ZM372,264L225,363C182,456 175,570.393 229,679.231C230.159,681.567 236.791,694.209 231.677,709.572C227.538,722.007 166,906 166,906L375,836.543L566,712L567,574.615L692,449L700.329,303L576.012,221.109L372,264ZM534,754.048L394.118,845.259C433.557,862.175 474.749,874.974 527.541,880.383L588.07,840.915L534,754.048Z" style="fill:rgb(42,96,156);stroke:rgb(56,127,207);stroke-width:1.65px;"/>
                <path d="M999.999,516.654L999.999,492.89C999.999,492.155 999.978,491.42 999.938,490.686C987.54,265.963 806.037,84.46 581.314,72.062C580.58,72.022 579.845,72.001 579.11,72.001L555.346,72.001C486.258,71.831 418.096,87.973 356.422,119.11C206.079,194.286 110.694,348.539 110.611,516.632C110.452,580.084 124.052,642.756 150.391,700.338C150.391,700.337 65.053,956.351 65.053,956.351C60.262,970.724 64.002,986.571 74.716,997.284C85.429,1008 101.276,1011.74 115.649,1006.95L371.663,921.609C429.245,947.949 491.917,961.549 555.369,961.389C723.462,961.305 877.714,865.92 952.89,715.578C984.027,653.904 1000.17,585.742 999.999,516.654L999.999,516.654ZM919.999,516.695C919.999,516.73 919.999,516.765 919.999,516.799C920.146,573.337 906.935,629.118 881.445,679.583C881.419,679.634 881.394,679.684 881.369,679.735C819.723,803.08 693.182,881.336 555.289,881.389C555.26,881.389 555.23,881.389 555.201,881.389C498.663,881.537 442.882,868.325 392.417,842.835C382.897,838.027 371.852,837.219 361.734,840.592L166.246,905.754C193.008,825.467 231.408,710.266 231.408,710.266C234.781,700.148 233.973,689.103 229.165,679.583C203.675,629.118 190.463,573.337 190.611,516.799C190.611,516.77 190.611,516.74 190.611,516.711C190.664,378.818 268.92,252.277 392.265,190.631C392.316,190.606 392.366,190.581 392.417,190.555C442.882,165.065 498.663,151.854 555.201,152.001C555.235,152.001 555.27,152.001 555.305,152.001L577.979,152.001C761.338,162.666 909.335,310.662 919.998,494.011C919.999,494.021 919.999,516.695 919.999,516.695ZM557.807,751.001C528.143,751.155 504.033,773.395 504,800.634C503.967,827.873 528.024,849.863 557.688,849.708C587.352,849.554 611.462,827.314 611.495,800.075C611.527,772.836 587.471,750.847 557.807,751.001ZM405.41,409.706C392.477,324.16 466.678,278.481 538.91,272.884C604.848,267.775 674.364,296.109 677.14,375.034C678.63,417.381 654.951,438.206 630.586,455.682C605.442,473.716 579.103,489.31 560.631,509.034C518.29,554.244 508.867,605.651 510.935,675.335C511.596,697.624 530.228,715.183 552.517,714.522C574.806,713.86 592.365,695.228 591.704,672.939C590.368,627.895 592.24,593.494 619.609,564.27C639.637,542.885 671.136,528.169 696.89,506.526C732.456,476.638 760.197,437.623 757.896,372.194C753.24,239.836 643.245,183.752 532.668,192.32C415.855,201.372 304.597,283.443 325.513,421.786C328.847,443.834 349.453,459.028 371.501,455.694C393.55,452.361 408.744,431.754 405.41,409.706Z" style="fill:white;"/>
            </g>
        </g>
    </g>
</svg>
