<?xml version="1.0" encoding="UTF-8" standalone="no"?>
<!DOCTYPE svg PUBLIC "-//W3C//DTD SVG 1.1//EN" "http://www.w3.org/Graphics/SVG/1.1/DTD/svg11.dtd">
<svg width="100%" height="100%" viewBox="0 0 658 658" version="1.1" xmlns="http://www.w3.org/2000/svg" xmlns:xlink="http://www.w3.org/1999/xlink" xml:space="preserve" xmlns:serif="http://www.serif.com/" style="fill-rule:evenodd;clip-rule:evenodd;stroke-linejoin:round;stroke-miterlimit:2;">
    <g transform="matrix(1,0,0,1,-1508,-3239)">
        <g id="ONBOARD_SCRN_2" transform="matrix(1,0,0,1,-3825,2679)">
            <rect x="5100" y="0" width="1125" height="2436" style="fill:none;"/>
            <g transform="matrix(0.60616,0,0,0.60616,5335.17,563.347)">
                <g transform="matrix(0.922382,0,0,0.933657,49.7009,26.9919)">
                    <path d="M1117,156.62C1117,54.155 1032.92,-28.91 929.201,-28.91L133.915,-28.91C30.197,-28.91 -53.883,54.155 -53.883,156.62L-53.883,942.302C-53.883,1044.77 30.197,1127.83 133.915,1127.83L929.201,1127.83C1032.92,1127.83 1117,1044.77 1117,942.302L1117,156.62Z" style="fill:rgb(56,127,207);"/>
                </g>
                <g transform="matrix(1,0,0,1,-1.30985,-4.45408)">
                    <path d="M806.798,350.907L780,202.652L608.769,314.304L591,318L406.31,438.429L375,431.986L497.923,351.834L281,402L211,236.48L1.31,373.21L1.31,911.233C1.31,957.174 19.56,1001.23 52.045,1033.72C84.531,1066.2 128.59,1084.45 174.531,1084.45C325.7,1084.45 521.042,1084.45 521.042,1084.45L824,886.908L861,616.74L1040,496.311L935,372L1049.98,297.029L868,311L806.798,350.907Z" style="fill:rgb(42,96,156);"/>
                </g>
                <g transform="matrix(1,0,0,1,-1.30985,-4.45408)">
                    <path d="M261.223,886.908C217.398,763.282 225.638,638.588 256.174,518.418C240.228,508.171 231.436,496.49 237.252,479.49L226.443,470.686L152.798,495L143,473L143,495C114.096,509.233 83.843,526.142 50.73,548.729C66.949,491.648 94.001,433.453 197,413L128.499,386.703L143,362L114.358,382.263L32.751,353.955C101.65,314.257 177.578,312.617 251,379C221.689,328.605 204.663,280.805 210.417,236.86C262.822,260.635 301.767,310.58 315,385C366.259,325.41 428.423,318.413 499,352L355.802,424.646C443.07,422.926 479.907,473.242 476.171,545.234L395,495L395,470.686L385.229,489.361C374.265,485.825 357.789,477.267 340.987,469C333.632,481.386 324.303,485.622 313.477,491C308.135,515.857 297.252,518.067 282.809,523.676L273,602C321.338,638.084 367.509,673.231 418.156,703.811L483.129,649.797C484.305,649.211 570,729.164 570,729.164C575.748,728.779 582.667,728.754 591,729.164C591,729.164 634.881,695.837 648.644,691.269C659.155,687.781 683,707.492 683,707.492C721.069,684.972 771.887,650.028 831,607C834.995,561.609 831.497,513.525 824,459.634C808.495,458.399 797.072,451.556 791.311,432L746.941,460.924L729,440L737.156,465.41C703.732,483.877 669.869,500.464 635.619,515.399C640.679,460.203 665.138,414.037 734,389C669.868,369.383 623.38,345.426 591,318C654.823,288.506 713.012,294.802 768.824,338C750.893,290.076 755.341,244.652 780,202C811.298,226.388 825.996,264.394 831,318C881.191,264.363 955.598,255.923 1049.87,296.966L970.471,330.753L935.902,309.054L953.827,338L911.994,357.294C981.62,373.334 1029.28,428.866 1042.06,495L967.438,449.833L967.438,423L956.039,446.822C927.445,434.316 896.001,424.87 870,423C870.739,434.798 863.957,445.109 850,454C888.199,614.744 872.291,758.295 824,886.908L771,886.908C804.265,799.564 823.805,711.392 831,628L773.528,668C750.465,703.654 715.847,737.338 680.559,766.519C680.559,766.519 681.97,838.955 678.81,856.062C676.723,867.361 669.362,869.519 663.195,869.934C656.962,870.353 647.515,864.824 646,857.63C643.333,844.963 646,793 646,793C610.9,814.768 586.353,828.315 553.413,827.607C479.83,826.026 396.685,742.482 383,724.072L332.569,668L271.064,624.955C267.789,704.586 280.912,793.048 313.477,886.908L261.223,886.908ZM467.157,719.124L483.129,707.492L502.005,726.318L467.157,719.124ZM683.051,592.569C710.118,592.569 732.093,614.545 732.093,641.612C732.093,668.679 710.118,690.654 683.051,690.654C655.984,690.654 634.009,668.679 634.009,641.612C634.009,614.545 655.984,592.569 683.051,592.569Z" style="fill:white;"/>
                </g>
            </g>
        </g>
    </g>
</svg>
