<?xml version="1.0" encoding="UTF-8" standalone="no"?>
<!DOCTYPE svg PUBLIC "-//W3C//DTD SVG 1.1//EN" "http://www.w3.org/Graphics/SVG/1.1/DTD/svg11.dtd">
<svg width="100%" height="100%" viewBox="0 0 671 686" version="1.1" xmlns="http://www.w3.org/2000/svg" xmlns:xlink="http://www.w3.org/1999/xlink" xml:space="preserve" xmlns:serif="http://www.serif.com/" style="fill-rule:evenodd;clip-rule:evenodd;stroke-linejoin:round;stroke-miterlimit:2;">
    <g transform="matrix(1,0,0,1,-4039,-3221)">
        <g id="ONBOARD_SCRN_4" transform="matrix(1,0,0,1,-3825,2679)">
            <rect x="7650" y="0" width="1125" height="2436" style="fill:none;"/>
            <g transform="matrix(0.60616,0,0,0.60616,7870.07,563.347)">
                <g transform="matrix(0.943231,0,0,0.964286,0,10.6071)">
                    <path d="M1145,168.637C1145,69.426 1062.78,-11 961.353,-11L183.647,-11C82.221,-11 0,69.426 0,168.637L0,929.363C0,1028.57 82.221,1109 183.647,1109L961.353,1109C1062.78,1109 1145,1028.57 1145,929.363L1145,168.637Z" style="fill:rgb(56,127,207);"/>
                </g>
                <path d="M840,997.235L713.071,1080L173.221,1080C77.554,1080 0,1002.45 -0,906.779C0,678.217 0,304.534 0,304.534L286,118.046C286,118.046 349,96.732 371,104.52C393,112.308 418,164.773 418,164.773L502,110C566.688,101.561 602.303,114.486 621,158L697,108.444C735.119,99.654 768.37,101.913 792,126C831.056,191.837 819.926,246.387 773,292.887L650,373.091L935,555L844,653L755,709.033C786,744 822,797 836,836C841.572,851.523 840,862 840,868L840,997.235Z" style="fill:rgb(42,96,156);"/>
                <path d="M640.109,596.587L640.109,496.478L573.37,496.478L573.37,563.218L506.63,563.218L506.63,496.478L439.891,496.478L439.891,596.587C439.891,596.587 239.674,763.435 239.674,863.544L239.674,997.022L840.326,997.022L840.326,863.544C840.326,763.435 640.109,596.587 640.109,596.587ZM540,663.326L540.857,663.329C613.693,663.797 673.478,723.866 673.478,796.805C673.478,869.743 613.693,929.813 540.857,930.28L540,930.283C466.776,930.283 406.522,870.029 406.522,796.805C406.522,723.581 466.776,663.326 540,663.326ZM540.536,713.383L540,713.381C494.235,713.381 456.576,751.04 456.576,796.805C456.576,842.57 494.235,880.229 540,880.229L540.536,880.227C586.058,879.935 623.424,842.391 623.424,796.805C623.424,751.218 586.058,713.675 540.536,713.383ZM541.771,363.003L540,363C388.502,363 251.019,422.398 149.242,518.836C143.235,524.843 139.565,533.185 139.565,542.528C139.565,551.872 143.235,560.214 149.242,566.221L231.999,648.977C238.005,654.984 246.348,658.655 256.358,658.655L256.749,658.652C264.961,658.54 273.137,654.895 279.05,649.311C305.412,624.618 335.444,603.928 367.813,587.577C378.825,582.238 386.5,570.893 386.5,557.545L386.5,454.099C434.886,438.082 486.275,429.739 540,429.739L541.243,429.741C593.864,429.87 645.158,438.204 693.166,453.765L693.166,557.211C693.166,570.225 700.841,581.905 711.853,587.244C744.556,603.595 773.587,624.618 800.95,648.977C806.957,654.984 815.299,658.321 823.642,658.321L824.11,658.318C833.912,658.206 842.089,654.557 848.001,648.644L930.758,565.887C936.765,559.881 940.435,551.538 940.435,542.195C940.435,532.851 936.431,524.843 930.424,518.836C829.044,422.774 692.236,363.464 541.771,363.003ZM541.7,300.191C558.877,300.191 573.678,296.159 586.103,288.093C598.528,280.028 608.076,268.562 614.746,253.696C621.416,238.83 624.751,221.151 624.751,200.661L624.751,200.4C624.751,179.909 621.416,162.253 614.746,147.43C608.076,132.607 598.528,121.163 586.103,113.098C573.678,105.033 558.877,101 541.7,101C524.523,101 509.701,105.033 497.232,113.098C484.764,121.163 475.172,132.607 468.458,147.43C461.745,162.253 458.388,179.909 458.388,200.4L458.388,200.661C458.388,221.151 461.745,238.83 468.458,253.696C475.172,268.562 484.764,280.028 497.232,288.093C509.701,296.159 524.523,300.191 541.7,300.191ZM735.949,300.191C753.126,300.191 767.927,296.159 780.352,288.093C792.777,280.028 802.324,268.562 808.995,253.696C815.665,238.83 819,221.151 819,200.661L819,200.4C819,179.909 815.665,162.253 808.995,147.43C802.324,132.607 792.777,121.163 780.352,113.098C767.927,105.033 753.126,101 735.949,101C718.772,101 703.949,105.033 691.481,113.098C679.012,121.163 669.421,132.607 662.707,147.43C655.993,162.253 652.637,179.909 652.637,200.4L652.637,200.661C652.637,221.151 655.993,238.83 662.707,253.696C669.421,268.562 679.012,280.028 691.481,288.093C703.949,296.159 718.772,300.191 735.949,300.191ZM345.751,300.191C362.667,300.191 377.489,297.837 390.219,293.129C402.949,288.42 412.846,281.837 419.908,273.38C426.971,264.922 430.502,255.069 430.502,243.821L430.502,243.56C430.502,234.841 428.432,227.189 424.29,220.606C420.148,214.023 414.481,208.639 407.287,204.454C400.094,200.269 391.963,197.479 382.895,196.083L382.895,195.037C394.579,192.77 404.257,187.887 411.93,180.389C419.603,172.89 423.44,163.866 423.44,153.316L423.44,153.054C423.44,142.94 420.192,133.981 413.696,126.177C407.2,118.373 398.11,112.226 386.427,107.736C374.743,103.245 361.184,101 345.751,101C330.318,101 316.781,103.245 305.141,107.736C293.501,112.226 284.411,118.373 277.872,126.177C271.332,133.981 268.063,142.94 268.063,153.054L268.063,153.316C268.063,163.866 271.877,172.89 279.507,180.389C287.136,187.887 296.836,192.77 308.607,195.037L308.607,196.083C299.539,197.566 291.43,200.378 284.28,204.519C277.131,208.661 271.463,214.023 267.278,220.606C263.093,227.189 261,234.841 261,243.56L261,243.821C261,255.069 264.531,264.922 271.594,273.38C278.656,281.837 288.553,288.42 301.283,293.129C314.013,297.837 328.836,300.191 345.751,300.191ZM345.751,263.309C340.607,263.309 336.073,262.306 332.149,260.301C328.225,258.295 325.152,255.527 322.929,251.996C320.705,248.464 319.593,244.475 319.593,240.029L319.593,239.767C319.593,235.32 320.683,231.353 322.863,227.865C325.043,224.377 328.095,221.631 332.018,219.625C335.942,217.62 340.52,216.617 345.751,216.617C350.983,216.617 355.56,217.62 359.484,219.625C363.408,221.631 366.459,224.377 368.639,227.865C370.819,231.353 371.909,235.32 371.909,239.767L371.909,240.029C371.909,244.475 370.797,248.464 368.574,251.996C366.35,255.527 363.277,258.295 359.353,260.301C355.43,262.306 350.896,263.309 345.751,263.309ZM541.7,258.339C535.858,258.339 530.932,256.116 526.921,251.669C522.91,247.222 519.859,240.704 517.766,232.116C515.673,223.527 514.627,213.042 514.627,200.661L514.627,200.4C514.627,187.931 515.673,177.424 517.766,168.879C519.859,160.335 522.91,153.86 526.921,149.457C530.932,145.054 535.858,142.852 541.7,142.852C547.542,142.852 552.469,145.054 556.479,149.457C560.49,153.86 563.52,160.335 565.569,168.879C567.618,177.424 568.643,187.931 568.643,200.4L568.643,200.661C568.643,213.042 567.618,223.527 565.569,232.116C563.52,240.704 560.49,247.222 556.479,251.669C552.469,256.116 547.542,258.339 541.7,258.339ZM735.949,258.339C730.107,258.339 725.181,256.116 721.17,251.669C717.159,247.222 714.107,240.704 712.015,232.116C709.922,223.527 708.876,213.042 708.876,200.661L708.876,200.4C708.876,187.931 709.922,177.424 712.015,168.879C714.107,160.335 717.159,153.86 721.17,149.457C725.181,145.054 730.107,142.852 735.949,142.852C741.791,142.852 746.717,145.054 750.728,149.457C754.739,153.86 757.769,160.335 759.818,168.879C761.867,177.424 762.892,187.931 762.892,200.4L762.892,200.661C762.892,213.042 761.867,223.527 759.818,232.116C757.769,240.704 754.739,247.222 750.728,251.669C746.717,256.116 741.791,258.339 735.949,258.339ZM345.751,179.996C341.304,179.996 337.337,179.103 333.849,177.315C330.362,175.528 327.637,173.043 325.675,169.86C323.713,166.678 322.732,162.994 322.732,158.809L322.732,158.547C322.732,154.362 323.735,150.722 325.74,147.626C327.746,144.531 330.492,142.111 333.98,140.367C337.468,138.624 341.392,137.752 345.751,137.752C350.198,137.752 354.143,138.624 357.588,140.367C361.032,142.111 363.756,144.531 365.762,147.626C367.767,150.722 368.77,154.362 368.77,158.547L368.77,158.809C368.77,162.994 367.789,166.678 365.827,169.86C363.865,173.043 361.162,175.528 357.718,177.315C354.274,179.103 350.285,179.996 345.751,179.996Z" style="fill:white;fill-rule:nonzero;"/>
            </g>
        </g>
    </g>
</svg>
