<?xml version="1.0" encoding="UTF-8" standalone="no"?>
<!DOCTYPE svg PUBLIC "-//W3C//DTD SVG 1.1//EN" "http://www.w3.org/Graphics/SVG/1.1/DTD/svg11.dtd">
<svg width="100%" height="100%" viewBox="0 0 1150 411" version="1.1" xmlns="http://www.w3.org/2000/svg" xmlns:xlink="http://www.w3.org/1999/xlink" xml:space="preserve" xmlns:serif="http://www.serif.com/" style="fill-rule:evenodd;clip-rule:evenodd;stroke-linejoin:round;stroke-miterlimit:2;">
    <g transform="matrix(0.666667,0,0,0.666667,-22,0)">
        <g transform="matrix(1.55006,0,0,1.55006,-667.276,-1138.99)">
            <path d="M763.1,1039.05C760.939,1044.67 758.849,1049.64 756.831,1053.97C754.814,1058.29 752.256,1061.93 749.157,1064.88C746.059,1067.84 742.131,1070.07 737.376,1071.59C732.62,1073.1 726.351,1073.86 718.569,1073.86C710.21,1073.86 702.14,1072.56 694.357,1069.96L698.681,1043.38C703.581,1045.54 708.625,1046.62 713.813,1046.62C717.416,1046.62 720.37,1046.22 722.676,1045.43C724.982,1044.64 726.891,1043.48 728.405,1041.97C729.918,1040.46 731.179,1038.62 732.188,1036.46C733.196,1034.3 734.277,1031.78 735.43,1028.89L737.808,1022.84L691.763,916.915L726.783,916.915L753.805,986.306L754.237,986.306L777.368,916.915L810.658,916.915L763.1,1039.05ZM889.777,916.915L919.609,916.915L919.609,930.75L920.042,930.75C921.339,928.877 923.032,926.967 925.122,925.021C927.211,923.076 929.661,921.311 932.472,919.725C935.282,918.14 938.344,916.843 941.659,915.834C944.973,914.825 948.504,914.321 952.251,914.321C960.034,914.321 967.095,915.654 973.436,918.32C979.777,920.986 985.218,924.733 989.757,929.561C994.297,934.389 997.792,940.118 1000.24,946.747C1002.69,953.376 1003.92,960.654 1003.92,968.58C1003.92,975.93 1002.8,982.956 1000.57,989.657C998.332,996.358 995.162,1002.3 991.054,1007.49C986.947,1012.68 981.939,1016.82 976.03,1019.92C970.122,1023.02 963.42,1024.57 955.926,1024.57C949.153,1024.57 942.848,1023.52 937.011,1021.43C931.174,1019.35 926.383,1015.78 922.636,1010.73L922.203,1010.73L922.203,1071.26L889.777,1071.26L889.777,916.915ZM1502.41,1003.82C1497.22,1010.45 1490.66,1015.56 1482.74,1019.17C1474.81,1022.77 1466.6,1024.57 1458.1,1024.57C1450.03,1024.57 1442.42,1023.27 1435.29,1020.68C1428.15,1018.08 1421.96,1014.37 1416.7,1009.55C1411.44,1004.72 1407.3,998.916 1404.27,992.143C1401.24,985.37 1399.73,977.804 1399.73,969.445C1399.73,961.086 1401.24,953.52 1404.27,946.747C1407.3,939.973 1411.44,934.173 1416.7,929.345C1421.96,924.517 1428.15,920.806 1435.29,918.212C1442.42,915.618 1450.03,914.321 1458.1,914.321C1465.59,914.321 1472.4,915.618 1478.52,918.212C1484.65,920.806 1489.84,924.517 1494.09,929.345C1498.34,934.173 1501.62,939.973 1503.92,946.747C1506.23,953.52 1507.38,961.086 1507.38,969.445L1507.38,979.605L1432.15,979.605C1433.45,985.802 1436.26,990.738 1440.59,994.413C1444.91,998.088 1450.24,999.925 1456.58,999.925C1461.91,999.925 1466.42,998.736 1470.09,996.358C1473.77,993.981 1476.97,990.918 1479.71,987.171L1502.41,1003.82ZM1143.13,969.445C1143.13,961.086 1144.64,953.52 1147.67,946.747C1150.7,939.973 1154.84,934.173 1160.1,929.345C1165.36,924.517 1171.56,920.806 1178.69,918.212C1185.83,915.618 1193.43,914.321 1201.5,914.321C1209.57,914.321 1217.17,915.618 1224.31,918.212C1231.44,920.806 1237.63,924.517 1242.89,929.345C1248.16,934.173 1252.3,939.973 1255.33,946.747C1258.35,953.52 1259.87,961.086 1259.87,969.445C1259.87,977.804 1258.35,985.37 1255.33,992.143C1252.3,998.916 1248.16,1004.72 1242.89,1009.55C1237.63,1014.37 1231.44,1018.08 1224.31,1020.68C1217.17,1023.27 1209.57,1024.57 1201.5,1024.57C1193.43,1024.57 1185.83,1023.27 1178.69,1020.68C1171.56,1018.08 1165.36,1014.37 1160.1,1009.55C1154.84,1004.72 1150.7,998.916 1147.67,992.143C1144.64,985.37 1143.13,977.804 1143.13,969.445ZM514.502,916.915L545.631,916.915L545.631,931.182L546.063,931.182C547.072,929.165 548.513,927.147 550.386,925.13C552.26,923.112 554.494,921.311 557.088,919.725C559.682,918.14 562.636,916.843 565.951,915.834C569.265,914.825 572.868,914.321 576.759,914.321C584.109,914.321 590.631,915.834 596.323,918.861C602.016,921.887 606.303,926.643 609.185,933.128C612.932,926.355 617.472,921.527 622.804,918.644C628.136,915.762 634.694,914.321 642.476,914.321C649.538,914.321 655.482,915.51 660.31,917.888C665.138,920.266 668.957,923.508 671.767,927.616C674.578,931.723 676.595,936.551 677.82,942.099C679.045,947.648 679.658,953.592 679.658,959.933L679.658,1021.98L647.232,1021.98L647.232,960.798C647.232,955.898 646.187,951.683 644.097,948.152C642.008,944.621 638.297,942.856 632.964,942.856C629.217,942.856 626.083,943.468 623.561,944.693C621.039,945.918 619.021,947.612 617.508,949.773C615.995,951.935 614.914,954.457 614.265,957.339C613.617,960.222 613.293,963.248 613.293,966.419L613.293,1021.98L580.867,1021.98L580.867,966.419C580.867,964.545 580.795,962.239 580.651,959.501C580.506,956.763 580.002,954.169 579.137,951.719C578.273,949.269 576.868,947.179 574.922,945.45C572.976,943.72 570.13,942.856 566.383,942.856C562.204,942.856 558.817,943.612 556.223,945.126C553.629,946.639 551.647,948.656 550.278,951.178C548.909,953.7 548.008,956.547 547.576,959.717C547.144,962.888 546.928,966.202 546.928,969.661L546.928,1021.98L514.502,1021.98L514.502,916.915ZM1278.89,916.915L1310.02,916.915L1310.02,931.182L1310.45,931.182C1311.46,929.165 1312.9,927.147 1314.77,925.13C1316.65,923.112 1318.88,921.311 1321.47,919.725C1324.07,918.14 1327.02,916.843 1330.34,915.834C1333.65,914.825 1337.26,914.321 1341.15,914.321C1349.36,914.321 1355.99,915.582 1361.03,918.104C1366.08,920.626 1370.01,924.121 1372.82,928.588C1375.62,933.056 1377.54,938.316 1378.54,944.369C1379.55,950.422 1380.06,956.979 1380.06,964.041L1380.06,1021.98L1347.63,1021.98L1347.63,970.526C1347.63,967.499 1347.52,964.365 1347.31,961.122C1347.09,957.88 1346.44,954.889 1345.36,952.151C1344.28,949.413 1342.62,947.179 1340.39,945.45C1338.15,943.72 1334.95,942.856 1330.77,942.856C1326.59,942.856 1323.2,943.612 1320.61,945.126C1318.02,946.639 1316.03,948.656 1314.66,951.178C1313.3,953.7 1312.39,956.547 1311.96,959.717C1311.53,962.888 1311.31,966.202 1311.31,969.661L1311.31,1021.98L1278.89,1021.98L1278.89,916.915ZM1055.37,858.548L1055.37,931.182L1055.8,931.182C1056.52,929.165 1057.74,927.147 1059.47,925.13C1061.2,923.112 1063.29,921.311 1065.74,919.725C1068.19,918.14 1071.07,916.843 1074.39,915.834C1077.7,914.825 1081.31,914.321 1085.2,914.321C1093.41,914.321 1100.04,915.582 1105.09,918.104C1110.13,920.626 1114.06,924.121 1116.87,928.588C1119.68,933.056 1121.59,938.316 1122.6,944.369C1123.6,950.422 1124.11,956.979 1124.11,964.041L1124.11,1021.98L1091.68,1021.98L1091.68,970.526C1091.68,967.499 1091.58,964.365 1091.36,961.122C1091.14,957.88 1090.49,954.889 1089.41,952.151C1088.33,949.413 1086.67,947.179 1084.44,945.45C1082.21,943.72 1079,942.856 1074.82,942.856C1070.64,942.856 1067.26,943.612 1064.66,945.126C1062.07,946.639 1060.09,948.656 1058.72,951.178C1057.35,953.7 1056.45,956.547 1056.01,959.717C1055.58,962.888 1055.37,966.202 1055.37,969.661L1055.37,1021.98L1022.94,1021.98L1022.94,858.548L1055.37,858.548ZM1175.56,969.445C1175.56,977.371 1177.83,983.784 1182.37,988.684C1186.91,993.584 1193.28,996.034 1201.5,996.034C1209.71,996.034 1216.09,993.584 1220.63,988.684C1225.17,983.784 1227.44,977.371 1227.44,969.445C1227.44,961.519 1225.17,955.106 1220.63,950.206C1216.09,945.306 1209.71,942.856 1201.5,942.856C1193.28,942.856 1186.91,945.306 1182.37,950.206C1177.83,955.106 1175.56,961.519 1175.56,969.445ZM919.609,969.445C919.609,977.371 921.879,983.784 926.419,988.684C930.958,993.584 937.335,996.034 945.55,996.034C953.765,996.034 960.142,993.584 964.681,988.684C969.221,983.784 971.491,977.371 971.491,969.445C971.491,961.519 969.221,955.106 964.681,950.206C960.142,945.306 953.765,942.856 945.55,942.856C937.335,942.856 930.958,945.306 926.419,950.206C921.879,955.106 919.609,961.519 919.609,969.445ZM1474.96,957.555C1475.1,952.079 1473.3,947.395 1469.55,943.504C1465.81,939.613 1460.98,937.668 1455.07,937.668C1451.47,937.668 1448.3,938.244 1445.56,939.397C1442.82,940.55 1440.48,942.027 1438.53,943.828C1436.59,945.63 1435.07,947.72 1433.99,950.098C1432.91,952.475 1432.3,954.961 1432.15,957.555L1474.96,957.555Z" style="fill:rgb(0,67,120);fill-rule:nonzero;"/>
        </g>
        <g transform="matrix(1.55006,0,0,1.55006,-667.276,-1138.99)">
            <path d="M679.511,833.784C689.738,830.231 694.69,823.664 694.69,813.437C694.69,798.473 681.448,789 660.564,789C647.43,789 636.772,792.983 631.067,799.981C628.16,803.641 626.653,808.485 626.653,814.083C626.653,819.466 628.483,824.31 631.82,827.863C634.404,830.769 636.88,832.061 642.263,833.784C637.095,834.86 634.296,836.152 630.959,838.736C625.469,843.042 622.67,848.963 622.67,856.391C622.67,863.173 624.93,869.094 629.237,873.292C635.696,879.644 646.784,883.196 660.456,883.196C673.913,883.196 684.893,879.859 691.46,873.615C696.089,869.309 698.565,863.173 698.565,856.391C698.565,850.147 697.166,845.625 693.828,841.642C690.276,837.121 686.293,834.968 679.511,833.784ZM743.779,882.873C757.451,882.873 768.755,876.845 775.214,866.08C779.305,859.297 781.996,847.456 781.996,836.152C781.996,827.324 780.597,819.035 777.798,811.392C776.183,807.086 773.492,802.995 769.939,799.442C763.372,792.983 754.222,789.431 743.779,789.431C730.215,789.431 719.019,795.459 712.452,806.44C708.362,813.222 705.67,824.956 705.67,836.26C705.67,844.98 707.07,853.269 709.869,860.912C711.483,865.218 714.175,869.309 717.727,872.862C724.294,879.429 733.229,882.873 743.779,882.873ZM826.995,882.873C840.667,882.873 851.971,876.845 858.43,866.08C862.521,859.297 865.212,847.456 865.212,836.152C865.212,827.324 863.812,819.035 861.013,811.392C859.399,807.086 856.707,802.995 853.155,799.442C846.588,792.983 837.437,789.431 826.995,789.431C813.431,789.431 802.235,795.459 795.668,806.44C791.577,813.222 788.886,824.956 788.886,836.26C788.886,844.98 790.285,853.269 793.084,860.912C794.699,865.218 797.391,869.309 800.943,872.862C807.51,879.429 816.445,882.873 826.995,882.873ZM500.161,810.531C504.897,809.992 509.096,809.777 513.294,809.777L517.6,809.777L517.6,864.68C517.6,870.924 517.385,875.984 516.739,880.936L540.208,880.936C539.562,875.661 539.346,871.139 539.346,864.68L539.346,808.27C539.346,801.165 539.562,796.643 540.1,790.938C535.794,791.368 534.394,791.368 526.751,791.368L513.079,791.368C506.835,791.368 504.036,791.261 500.161,790.615L500.161,810.531ZM660.779,842.934C670.468,842.934 676.281,847.133 676.281,854.345C676.281,861.558 670.575,865.757 660.564,865.757C650.767,865.757 644.846,861.558 644.846,854.561C644.846,847.348 650.875,842.934 660.779,842.934ZM743.779,807.624C754.222,807.624 759.82,817.313 759.82,835.721C759.82,854.884 754.437,864.572 743.887,864.572C733.229,864.572 727.739,854.668 727.739,835.398C727.739,817.851 733.66,807.624 743.779,807.624ZM826.995,807.624C837.437,807.624 843.035,817.313 843.035,835.721C843.035,854.884 837.653,864.572 827.103,864.572C816.445,864.572 810.955,854.668 810.955,835.398C810.955,817.851 816.876,807.624 826.995,807.624ZM572.396,857.037C575.948,856.498 578.855,856.283 582.838,856.283L604.153,856.283C608.137,856.283 611.043,856.498 614.596,857.037L614.596,836.583C611.259,837.121 608.244,837.336 604.153,837.336L582.838,837.336C578.747,837.336 575.733,837.121 572.396,836.583L572.396,857.037ZM660.671,806.009C668.422,806.009 673.267,809.669 673.267,815.483C673.267,821.511 668.53,825.171 660.779,825.171C652.92,825.171 647.968,821.404 647.968,815.483C647.968,809.669 652.92,806.009 660.671,806.009Z" style="fill-rule:nonzero;"/>
        </g>
    </g>
</svg>
