<?xml version="1.0" encoding="UTF-8" standalone="no"?>
<!DOCTYPE svg PUBLIC "-//W3C//DTD SVG 1.1//EN" "http://www.w3.org/Graphics/SVG/1.1/DTD/svg11.dtd">
<svg width="100%" height="100%" viewBox="0 0 2092 638" version="1.1" xmlns="http://www.w3.org/2000/svg" xmlns:xlink="http://www.w3.org/1999/xlink" xml:space="preserve" xmlns:serif="http://www.serif.com/" style="fill-rule:evenodd;clip-rule:evenodd;stroke-linecap:round;stroke-linejoin:round;stroke-miterlimit:2;">
    <g transform="matrix(1,0,0,1,-332,-445)">
        <g transform="matrix(3.62006,0,0,3.62006,-926.396,-2405.75)">
            <path d="M348.477,879.044C348.477,866.169 353.039,856.075 362.164,848.762C371.289,841.45 382.32,837.794 395.258,837.794C407.883,837.794 418.883,841.341 428.258,848.434C437.633,855.528 442.32,865.762 442.32,879.137C442.32,891.825 437.727,901.934 428.539,909.466C419.352,916.997 408.227,920.762 395.164,920.762C382.414,920.762 371.445,917.184 362.258,910.028C353.07,902.872 348.477,892.544 348.477,879.044ZM380.633,878.106C380.633,890.106 381.742,898.497 383.961,903.278C386.18,908.059 390.039,910.45 395.539,910.45C399.977,910.45 403.524,908.45 406.18,904.45C408.836,900.45 410.164,891.919 410.164,878.856C410.164,866.981 408.977,858.934 406.602,854.716C404.227,850.497 400.477,848.387 395.352,848.387C391.289,848.387 387.82,850.184 384.945,853.778C382.07,857.372 380.633,865.481 380.633,878.106Z" style="fill:rgb(56,127,207);fill-rule:nonzero;stroke:rgb(56,127,207);stroke-width:1.24px;"/>
            <path d="M456.477,879.044C456.477,866.169 461.039,856.075 470.164,848.762C479.289,841.45 490.32,837.794 503.258,837.794C515.883,837.794 526.883,841.341 536.258,848.434C545.633,855.528 550.32,865.762 550.32,879.137C550.32,891.825 545.727,901.934 536.539,909.466C527.352,916.997 516.227,920.762 503.164,920.762C490.414,920.762 479.445,917.184 470.258,910.028C461.07,902.872 456.477,892.544 456.477,879.044ZM488.633,878.106C488.633,890.106 489.742,898.497 491.961,903.278C494.18,908.059 498.039,910.45 503.539,910.45C507.977,910.45 511.524,908.45 514.18,904.45C516.836,900.45 518.164,891.919 518.164,878.856C518.164,866.981 516.977,858.934 514.602,854.716C512.227,850.497 508.477,848.387 503.352,848.387C499.289,848.387 495.82,850.184 492.945,853.778C490.07,857.372 488.633,865.481 488.633,878.106Z" style="fill:rgb(56,127,207);fill-rule:nonzero;stroke:rgb(56,127,207);stroke-width:1.24px;"/>
            <path d="M602.727,909.981L602.727,940.544C602.727,945.169 603.461,948.387 604.93,950.2C606.399,952.012 609.727,952.919 614.914,952.919L617.914,952.919L617.914,962.95L559.602,962.95L559.602,952.919C564.977,952.919 568.461,952.091 570.055,950.434C571.649,948.778 572.445,945.481 572.445,940.544L572.445,867.044C572.445,862.294 571.695,859.028 570.195,857.247C568.695,855.466 565.164,854.575 559.602,854.575L559.602,844.637L600.289,837.794C601.539,842.231 602.164,846.7 602.164,851.2C606.602,846.7 611.274,843.341 616.18,841.122C621.086,838.903 626.227,837.794 631.602,837.794C641.664,837.794 650.289,841.528 657.477,848.997C664.664,856.466 668.258,866.262 668.258,878.387C668.258,890.887 664.461,901.075 656.867,908.95C649.274,916.825 640.32,920.762 630.008,920.762C625.195,920.762 620.524,919.856 615.992,918.044C611.461,916.231 607.039,913.544 602.727,909.981ZM602.727,898.637C605.227,901.262 607.867,903.247 610.649,904.591C613.43,905.934 616.32,906.606 619.32,906.606C625.008,906.606 629.258,904.372 632.07,899.903C634.883,895.434 636.289,888.731 636.289,879.794C636.289,870.419 634.977,863.403 632.352,858.747C629.727,854.091 625.789,851.762 620.539,851.762C616.914,851.762 613.43,853.028 610.086,855.559C606.742,858.091 604.289,860.887 602.727,863.95L602.727,898.637Z" style="fill:rgb(56,127,207);fill-rule:nonzero;stroke:rgb(56,127,207);stroke-width:1.24px;"/>
            <path d="M684.852,920.762L684.195,895.262L693.383,895.262C698.258,905.825 707.195,911.106 720.195,911.106C725.633,911.106 730.133,910.169 733.695,908.294C737.258,906.419 739.039,904.294 739.039,901.919C739.039,899.856 738.07,898.262 736.133,897.137C734.133,896.075 729.664,894.825 722.727,893.387C711.977,891.2 704.039,889.122 698.914,887.153C693.789,885.184 689.664,882.153 686.539,878.059C683.414,873.966 681.852,869.294 681.852,864.044C681.852,856.231 685.039,849.903 691.414,845.059C697.789,840.216 706.32,837.794 717.008,837.794C725.258,837.794 733.664,839.419 742.227,842.669C743.727,841.231 744.914,839.606 745.789,837.794L753.57,837.794L754.414,861.044L746.914,861.044C742.102,851.481 732.508,846.7 718.133,846.7C713.445,846.7 709.602,847.466 706.602,848.997C703.602,850.528 702.102,852.481 702.102,854.856C702.102,857.356 703.32,859.2 705.758,860.387C708.133,861.575 713.945,863.075 723.195,864.887C732.82,866.825 740.055,868.794 744.899,870.794C749.742,872.794 753.555,875.716 756.336,879.559C759.117,883.403 760.508,887.856 760.508,892.919C760.508,901.106 756.883,907.794 749.633,912.981C742.383,918.169 733.414,920.762 722.727,920.762C714.539,920.762 705.977,919.012 697.039,915.512C695.352,916.762 694.102,918.512 693.289,920.762L684.852,920.762Z" style="fill:rgb(56,127,207);fill-rule:nonzero;stroke:rgb(56,127,207);stroke-width:1.24px;"/>
            <path d="M783.758,805.262C783.758,800.637 785.414,796.653 788.727,793.309C792.039,789.966 796.008,788.294 800.633,788.294C805.32,788.294 809.289,789.95 812.539,793.262C815.789,796.575 817.414,800.575 817.414,805.262C817.414,809.95 815.774,813.95 812.492,817.262C809.211,820.575 805.258,822.231 800.633,822.231C795.82,822.231 791.805,820.528 788.586,817.122C785.367,813.716 783.758,809.762 783.758,805.262ZM815.352,837.794L815.352,895.262C815.352,900.012 816.102,903.278 817.602,905.059C819.102,906.841 822.602,907.731 828.102,907.731L828.102,917.669L770.727,917.669L770.727,907.731L772.883,907.731C778.195,907.731 781.555,906.794 782.961,904.919C784.367,903.044 785.07,899.825 785.07,895.262L785.07,867.325C785.07,862.7 784.352,859.466 782.914,857.622C781.477,855.778 778.133,854.856 772.883,854.856L770.727,854.856L770.727,844.919L815.352,837.794Z" style="fill:rgb(56,127,207);fill-rule:nonzero;stroke:rgb(56,127,207);stroke-width:1.24px;"/>
            <path d="M872.352,878.387C872.352,888.575 874.086,896.231 877.555,901.356C881.024,906.481 886.227,909.044 893.164,909.044C900.539,909.044 907.32,905.294 913.508,897.794L922.227,903.044C918.664,908.169 913.555,912.403 906.899,915.747C900.242,919.091 892.883,920.762 884.82,920.762C872.445,920.762 861.852,916.997 853.039,909.466C844.227,901.934 839.82,891.762 839.82,878.95C839.82,866.137 844.086,856.075 852.617,848.762C861.149,841.45 871.414,837.794 883.414,837.794C895.477,837.794 905.367,841.153 913.086,847.872C920.805,854.591 924.664,864.762 924.664,878.387L872.352,878.387ZM872.258,868.919L895.977,868.919C895.602,855.106 891.57,848.2 883.883,848.2C880.008,848.2 877.102,849.919 875.164,853.356C873.227,856.794 872.258,861.981 872.258,868.919Z" style="fill:rgb(56,127,207);fill-rule:nonzero;stroke:rgb(56,127,207);stroke-width:1.24px;"/>
        </g>
    </g>
</svg>
