<?xml version="1.0" encoding="UTF-8" standalone="no"?>
<!DOCTYPE svg PUBLIC "-//W3C//DTD SVG 1.1//EN" "http://www.w3.org/Graphics/SVG/1.1/DTD/svg11.dtd">
<svg width="100%" height="100%" viewBox="0 0 1080 1080" version="1.1" xmlns="http://www.w3.org/2000/svg" xmlns:xlink="http://www.w3.org/1999/xlink" xml:space="preserve" xmlns:serif="http://www.serif.com/" style="fill-rule:evenodd;clip-rule:evenodd;stroke-linejoin:round;stroke-miterlimit:2;">
    <g id="Rounded">
        <g id="rounded" transform="matrix(2.02247,0,0,2.0206,-385.099,-1285.87)">
            <path d="M724.904,697.633C724.904,663.803 697.505,636.379 663.707,636.379L253.958,636.379C218.861,636.379 190.41,664.856 190.41,699.985L190.41,1107.37C190.41,1124.21 197.095,1140.36 208.994,1152.27C220.893,1164.18 237.031,1170.87 253.858,1170.87L662.399,1170.87C696.92,1170.87 724.904,1142.86 724.904,1108.31L724.904,697.633Z" style="fill:rgb(56,127,207);"/>
            <path d="M724.904,697.633C724.904,663.803 697.505,636.379 663.707,636.379L253.958,636.379C218.861,636.379 190.41,664.856 190.41,699.985L190.41,1107.37C190.41,1124.21 197.095,1140.36 208.994,1152.27C220.893,1164.18 237.031,1170.87 253.858,1170.87L662.399,1170.87C696.92,1170.87 724.904,1142.86 724.904,1108.31L724.904,697.633ZM723.905,697.633L723.905,1108.31C723.905,1142.31 696.368,1169.87 662.399,1169.87L253.858,1169.87C237.296,1169.87 221.412,1163.29 209.7,1151.57C197.989,1139.84 191.41,1123.94 191.41,1107.37L191.41,699.985C191.41,665.409 219.413,637.379 253.958,637.379L663.707,637.379C696.953,637.379 723.905,664.356 723.905,697.633Z" style="fill:rgb(198,198,198);"/>
        </g>
        <g id="rounded1" serif:id="rounded" transform="matrix(1.2443,0,0,1.2443,-219.629,-563.478)">
            <path d="M362.201,682.488C344.282,708.03 330.318,738.568 320.333,774.117C309.859,811.401 304.622,849.613 304.622,888.751C304.622,967.252 324.748,1036.55 364.957,1096.65C365.513,1097.48 366.449,1097.98 367.45,1097.98L398.252,1097.98C399.336,1097.98 400.335,1097.39 400.867,1096.45C401.398,1095.51 401.379,1094.35 400.817,1093.42C362.146,1029.72 342.807,961.355 342.807,888.309C342.807,850.168 347.698,813.801 357.482,779.209L472.332,714.59C472.316,714.869 469.406,716.149 469.423,722.075C469.438,727.443 472.704,734.166 479.755,741.548C485.962,748.046 492.422,756.99 499.158,768.362C505.914,779.769 511.02,790.58 514.465,800.802C518.541,812.898 524.563,818.445 531.461,818.445C535.369,818.445 539.448,816.524 543.519,812.336C547.422,808.32 549.423,803.189 549.423,796.905C549.423,791.278 547.322,782.198 542.99,769.695C538.665,757.215 528.562,744.436 512.519,731.488C511.255,730.468 510.025,729.488 508.829,728.551L569.875,688.244C569.871,688.367 568.076,690.418 568.09,694.708C568.108,700.095 570.648,706.055 576.061,712.452C591.812,732.129 600.917,752.387 603.287,773.251C604.044,780.621 606.571,785.684 610.484,788.63C613.206,790.678 616.642,791.765 620.829,791.765C626.719,791.765 631.62,788.505 635.22,781.553C638.394,775.422 640.004,768.408 640.004,760.503C640.004,756.959 638.436,749.136 637.738,745.916L706.105,704.857C705.26,706.749 703.789,710.127 704.58,714.943C705.33,719.512 708.88,724.415 711.398,727.231C714.955,731.209 716.902,734.782 716.902,738.119C716.902,744.615 711.427,761.405 700.733,788.571C689.887,816.122 674.617,844.568 654.934,873.916C635.27,903.235 613.737,928.295 590.328,949.088C566.956,969.847 545.53,985.317 526.031,995.473C526.025,995.476 526.019,995.479 526.013,995.482C520.579,998.36 516.229,1001.49 512.94,1004.85C509.176,1008.7 507.433,1012.61 507.433,1016.45C507.433,1019.2 508.76,1021.35 511.685,1022.72C513.656,1023.65 516.6,1024.19 520.543,1024.19C527.486,1024.19 542.701,1018.18 566.03,1005.75C588.892,993.582 612.716,975.411 637.483,951.216C662.201,927.068 683.728,899.505 702.063,868.523C720.362,837.602 735.204,805.467 746.592,772.121C749.653,763.567 752.979,757.264 756.678,753.271C761.217,748.37 763.34,743.574 763.34,739.023C763.34,736.152 762.34,732.924 760.183,729.392C759.048,727.534 753.228,721.012 751.419,718.94L820.55,678.101C820.385,678.244 820.002,678.707 819.915,678.927C819.832,679.14 819.729,679.319 819.68,679.53C819.575,679.97 819.576,680.384 819.576,680.384C819.576,680.384 819.579,680.797 819.704,681.186C819.856,681.658 820.055,681.951 820.121,682.049L820.813,683.159C820.813,683.159 822.292,685.563 822.306,685.585C859.455,746.424 878.021,813.999 878.021,888.309C878.021,961.355 858.681,1029.72 820.011,1093.42C819.448,1094.35 819.429,1095.51 819.961,1096.45C820.492,1097.39 821.492,1097.98 822.575,1097.98L854.02,1097.98L460.218,1319.05L273.339,1319.05C222.249,1315.44 181.426,1276.3 178.115,1221.95L178.115,791.765L362.201,682.488Z" style="fill:rgb(42,96,156);"/>
        </g>
        <g transform="matrix(1.2443,0,0,1.2443,-219.538,-564.499)">
            <path d="M398.252,1097.98C399.336,1097.98 400.335,1097.39 400.867,1096.45C401.398,1095.51 401.379,1094.35 400.817,1093.42C362.146,1029.72 342.807,961.355 342.807,888.309C342.807,812.497 362.13,743.695 400.795,681.906C401.374,680.982 401.405,679.816 400.877,678.861C400.348,677.907 399.343,677.315 398.252,677.315L367.45,677.315C366.494,677.315 365.595,677.771 365.03,678.542C345.747,704.863 330.838,736.717 320.333,774.117C309.859,811.401 304.622,849.613 304.622,888.751C304.622,967.252 324.748,1036.55 364.957,1096.65C365.513,1097.48 366.449,1097.98 367.45,1097.98L398.252,1097.98ZM820.011,1093.42C819.448,1094.35 819.429,1095.51 819.961,1096.45C820.492,1097.39 821.492,1097.98 822.575,1097.98L853.378,1097.98C854.379,1097.98 855.314,1097.48 855.871,1096.65C896.08,1036.55 916.205,967.252 916.205,888.751C916.205,849.613 910.968,811.401 900.495,774.117C889.989,736.717 875.08,704.863 855.798,678.542C855.233,677.771 854.334,677.315 853.378,677.315L822.575,677.315C821.484,677.315 820.479,677.907 819.951,678.861C819.422,679.816 819.453,680.982 820.032,681.906C858.697,743.695 878.021,812.497 878.021,888.309C878.021,961.355 858.681,1029.72 820.011,1093.42ZM763.34,739.023C763.34,736.152 762.34,732.924 760.183,729.392C757.339,724.736 752.393,719.399 745.284,713.436C733.175,703.281 723.935,698.491 717.88,698.491C714.117,698.491 710.965,699.672 708.399,701.968C705.822,704.274 704.366,707.766 704.366,712.569C704.366,716.907 706.589,721.853 711.398,727.231C714.955,731.209 716.902,734.782 716.902,738.119C716.902,744.615 711.427,761.405 700.733,788.571C689.887,816.122 674.617,844.568 654.934,873.916C635.27,903.235 613.737,928.295 590.328,949.088C566.956,969.847 545.53,985.317 526.031,995.473C526.025,995.476 526.019,995.479 526.013,995.482C520.579,998.36 516.229,1001.49 512.94,1004.85C509.176,1008.7 507.433,1012.61 507.433,1016.45C507.433,1019.2 508.76,1021.35 511.685,1022.72C513.656,1023.65 516.6,1024.19 520.543,1024.19C527.486,1024.19 542.701,1018.18 566.03,1005.75C588.892,993.582 612.716,975.411 637.483,951.216C662.201,927.068 683.728,899.505 702.063,868.523C720.362,837.602 735.204,805.467 746.592,772.121C749.653,763.567 752.979,757.264 756.678,753.271C761.217,748.37 763.34,743.574 763.34,739.023ZM549.423,796.905C549.423,791.278 547.322,782.198 542.99,769.695C538.665,757.215 528.562,744.436 512.519,731.488C503.034,723.833 495.47,718.486 489.845,715.424C485.567,713.095 482.223,712.057 479.902,712.057C476.459,712.057 473.928,713.044 472.206,714.709C470.451,716.406 469.421,718.897 469.421,722.292C469.421,727.66 472.704,734.166 479.755,741.548C485.962,748.046 492.422,756.99 499.158,768.362C505.914,779.769 511.02,790.58 514.465,800.802C518.541,812.898 524.563,818.445 531.461,818.445C535.369,818.445 539.448,816.524 543.519,812.336C547.422,808.32 549.423,803.189 549.423,796.905ZM578.369,684.472C574.979,684.472 572.49,685.469 570.795,687.154C569.094,688.844 568.09,691.327 568.09,694.708C568.09,700.095 570.648,706.055 576.061,712.452C591.812,732.129 600.917,752.387 603.287,773.251C604.044,780.621 606.571,785.684 610.484,788.63C613.206,790.678 616.642,791.765 620.829,791.765C626.719,791.765 631.62,788.505 635.22,781.553C638.394,775.422 640.004,768.408 640.004,760.503C640.004,752.578 638.251,745.467 634.78,739.159C631.471,733.146 625.628,725.347 617.218,715.788C608.884,706.316 601.502,698.834 595.08,693.334C587.971,687.244 582.302,684.472 578.369,684.472Z" style="fill:white;fill-rule:nonzero;"/>
        </g>
    </g>
</svg>
