<?xml version="1.0" encoding="UTF-8" standalone="no"?>
<!DOCTYPE svg PUBLIC "-//W3C//DTD SVG 1.1//EN" "http://www.w3.org/Graphics/SVG/1.1/DTD/svg11.dtd">
<svg width="100%" height="100%" viewBox="0 0 76 73" version="1.1" xmlns="http://www.w3.org/2000/svg" xmlns:xlink="http://www.w3.org/1999/xlink" xml:space="preserve" xmlns:serif="http://www.serif.com/" style="fill-rule:evenodd;clip-rule:evenodd;stroke-linejoin:round;stroke-miterlimit:2;">
    <g transform="matrix(1,0,0,1,-17,-73)">
        <g id="Delete">
        </g>
        <g id="Search">
        </g>
        <g id="Bed" transform="matrix(1,9.86076e-32,-1.2326e-32,1,-5560.34,-92.4999)">
            <path d="M5586.38,202.499C5587.48,202.499 5588.38,203.395 5588.38,204.499L5588.38,206.495L5640.74,206.495L5640.74,204.499C5640.74,203.395 5641.64,202.499 5642.74,202.499L5642.78,202.499C5643.88,202.499 5644.78,203.395 5644.78,204.499L5644.78,228.568C5644.78,229.672 5643.88,230.568 5642.78,230.568L5642.68,230.568C5641.58,230.568 5640.68,229.672 5640.68,228.568L5640.68,224.434L5588.44,224.434L5588.44,228.568C5588.44,229.672 5587.54,230.568 5586.44,230.568L5586.34,230.568C5585.24,230.568 5584.34,229.672 5584.34,228.568L5584.34,204.499C5584.34,203.395 5585.24,202.499 5586.34,202.499L5586.38,202.499ZM5594.43,202.499L5590.34,202.499L5590.34,188.828C5590.34,188.094 5590.95,187.5 5591.7,187.5L5637.98,187.5C5638.73,187.5 5639.34,188.094 5639.34,188.828L5639.34,202.499L5635.26,202.499L5635.26,200.499C5635.26,199.395 5634.34,198.499 5633.22,198.499L5618.93,198.499C5617.8,198.499 5616.88,199.395 5616.88,200.499L5616.88,202.499L5612.8,202.499L5612.8,200.499C5612.8,199.395 5611.89,198.499 5610.76,198.499L5596.47,198.499C5595.34,198.499 5594.43,199.395 5594.43,200.499L5594.43,202.499Z"/>
        </g>
    </g>
</svg>
