<?xml version="1.0" encoding="UTF-8" standalone="no"?>
<!DOCTYPE svg PUBLIC "-//W3C//DTD SVG 1.1//EN" "http://www.w3.org/Graphics/SVG/1.1/DTD/svg11.dtd">
<svg width="100%" height="100%" viewBox="0 0 1080 1080" version="1.1" xmlns="http://www.w3.org/2000/svg" xmlns:xlink="http://www.w3.org/1999/xlink" xml:space="preserve" xmlns:serif="http://www.serif.com/" style="fill-rule:evenodd;clip-rule:evenodd;stroke-linejoin:round;stroke-miterlimit:2;">
    <g id="white">
        <path d="M544,96C296.688,96 96,296.688 96,544C96,791.312 296.688,992 544,992C791.312,992 992,791.312 992,544C992,296.688 791.312,96 544,96ZM813.922,849.219C813.65,839.473 810.937,832.329 810.937,827.832C810.937,783.024 753.279,720.537 673.116,684.376C640.718,733.5 594.97,766.442 544,766.442C493.028,766.442 447.282,733.5 414.884,684.376C334.72,720.537 277.063,783.024 277.063,827.832C277.063,836.826 276.311,844.268 276.074,850.975C190.574,776.297 136.543,666.452 136.543,544C134.516,318.986 318.986,136.543 544,136.543C769.014,136.543 951.457,318.986 951.457,544C951.457,665.485 898.276,774.561 813.922,849.219ZM826.917,322.932L770.238,396.749L812.748,470.565L859.508,470.565C872.406,518.668 872.406,570.095 859.508,618.199L812.748,618.199L770.238,692.015L826.917,765.832C937.502,655.047 937.528,433.743 826.917,322.932ZM260.982,322.932L317.661,396.749L275.152,470.565L228.391,470.565C215.493,518.668 215.493,570.095 228.391,618.199L275.152,618.199L317.661,692.015L260.982,765.832C150.397,655.047 150.372,433.743 260.982,322.932ZM544,721.949C470.108,721.949 410.533,623.862 410.533,523.073C410.533,429.228 466.25,366.051 544,366.051C621.75,366.051 677.472,429.228 677.472,523.073C677.472,623.862 617.892,721.949 544,721.949ZM543.869,305.123C578.717,305.123 610.855,315.496 636.738,332.917C641.311,335.975 647.598,335.636 651.403,331.839L669.905,313.338C674.086,309.157 673.645,302.537 668.729,299.108C634.174,274.979 590.932,259.597 543.869,259.597C496.903,259.597 453.693,274.935 419.187,298.99C414.256,302.418 413.815,309.038 417.979,313.206L436.448,331.734C440.253,335.547 446.557,335.902 451.113,332.829C476.98,315.452 509.069,305.123 543.869,305.123ZM543.869,215.268C604.388,215.268 659.846,234.285 703.594,265.848C708.085,269.097 714.519,268.758 718.373,264.887L735.046,248.234C739.178,244.111 738.77,237.581 733.985,234.063C682.055,195.867 615.999,169.713 543.869,169.713C471.836,169.713 405.878,195.778 354.03,233.857C349.245,237.373 348.821,243.89 352.952,248.027L369.593,264.694C373.43,268.566 379.864,268.906 384.355,265.67C428.071,234.212 483.43,215.268 543.869,215.268Z" style="fill-rule:nonzero;"/>
    </g>
</svg>
