<?xml version="1.0" encoding="UTF-8" standalone="no"?>
<!DOCTYPE svg PUBLIC "-//W3C//DTD SVG 1.1//EN" "http://www.w3.org/Graphics/SVG/1.1/DTD/svg11.dtd">
<svg width="100%" height="100%" viewBox="0 0 1080 1080" version="1.1" xmlns="http://www.w3.org/2000/svg" xmlns:xlink="http://www.w3.org/1999/xlink" xml:space="preserve" xmlns:serif="http://www.serif.com/" style="fill-rule:evenodd;clip-rule:evenodd;stroke-linejoin:round;stroke-miterlimit:2;">
    <g id="Rounded">
        <g transform="matrix(2.02247,0,0,2.0206,-385.099,-1285.87)">
            <path d="M190.41,842.258L190.41,699.985C190.41,664.856 218.861,636.379 253.958,636.379L663.707,636.379C697.505,636.379 724.904,663.803 724.904,697.633L724.904,1108.31C724.904,1142.86 696.92,1170.87 662.399,1170.87L407.284,1170.87L609.99,1038.57L587.895,1033.65C587.228,1033.65 586.613,1033.3 586.286,1032.71C585.959,1032.13 585.971,1031.42 586.317,1030.85C610.109,991.624 622.007,949.522 622.007,904.539C622.007,858.779 583.392,769.595 583.493,769.507L547.893,795.726C549.006,797.002 548.81,805.533 549.509,806.677C550.836,808.852 551.451,810.84 551.451,812.608C551.451,815.411 550.145,818.364 547.352,821.382C545.077,823.841 543.03,827.722 541.147,832.99C534.141,853.525 525.009,873.313 513.751,892.355C502.471,911.434 489.226,928.408 474.019,943.278C458.782,958.177 444.124,969.367 430.059,976.864C415.706,984.514 406.345,988.219 402.073,988.219C399.647,988.219 397.836,987.883 396.624,987.313C394.824,986.467 394.008,985.14 394.008,983.448C394.008,981.081 395.08,978.674 397.396,976.307C399.419,974.24 402.095,972.31 405.438,970.537C405.442,970.535 405.446,970.533 405.45,970.531C417.446,964.278 430.628,954.751 445.007,941.967C459.41,929.163 472.657,913.731 484.755,895.676C496.865,877.604 506.26,860.086 512.933,843.12C519.512,826.391 522.881,816.051 522.881,812.051C522.881,809.997 521.683,807.796 519.494,805.346C517.945,803.612 515.761,800.593 515.3,797.78C514.813,794.814 513.257,786.015 513.777,784.849L477.188,808.729C477.618,810.712 475.57,823.653 475.57,825.835C475.57,830.704 474.58,835.022 472.627,838.798C470.412,843.08 467.397,845.087 463.773,845.087C461.197,845.087 459.083,844.418 457.408,843.156C455.001,841.342 453.446,838.224 452.981,833.686C451.522,820.838 445.92,808.363 436.23,796.245C432.9,792.306 431.337,788.636 431.326,785.318C431.317,782.677 429.225,776.017 429.227,775.941L396.099,799.696C396.834,800.274 396.359,807.34 397.137,807.968C407.007,815.942 413.223,823.811 415.883,831.496C418.549,839.195 419.841,844.787 419.841,848.252C419.841,852.122 418.61,855.282 416.209,857.754C413.704,860.334 411.195,861.516 408.79,861.516C404.547,861.516 400.841,858.101 398.334,850.652C396.215,844.357 393.073,837.7 388.916,830.675C384.772,823.672 380.798,818.164 376.979,814.163C372.641,809.617 370.632,805.477 370.622,802.171C370.612,798.522 367.412,793.929 367.421,793.758L307.593,832.805C301.573,854.107 292.723,881.052 292.723,904.539C292.723,949.522 304.622,991.624 328.413,1030.85C328.759,1031.42 328.771,1032.13 328.444,1032.71C328.117,1033.3 327.502,1033.65 326.835,1033.65L307.885,1033.65C307.269,1033.65 306.693,1033.35 306.351,1032.84C281.613,995.825 269.231,953.153 269.231,904.811C269.231,880.71 272.453,857.179 278.896,834.219C285.04,812.328 292.721,785.114 303.745,769.385L190.41,842.258Z" style="fill:rgb(56,127,207);"/>
        </g>
        <g transform="matrix(1.2443,0,0,1.2443,-219.629,-563.478)">
            <path d="M176.508,787.171L360.722,668.834C342.803,694.376 330.318,738.568 320.333,774.117C309.859,811.401 304.622,849.613 304.622,888.751C304.622,967.252 324.748,1036.55 364.957,1096.65C365.513,1097.48 366.449,1097.98 367.45,1097.98L398.252,1097.98C399.336,1097.98 400.335,1097.39 400.867,1096.45C401.398,1095.51 401.379,1094.35 400.817,1093.42C362.146,1029.72 342.807,961.355 342.807,888.309C342.807,850.168 357.192,806.413 366.976,771.82L464.22,708.412C464.205,708.691 469.406,716.149 469.423,722.075C469.438,727.443 472.704,734.166 479.755,741.548C485.962,748.046 492.422,756.99 499.158,768.362C505.914,779.769 511.02,790.58 514.465,800.802C518.541,812.898 524.563,818.445 531.461,818.445C535.369,818.445 539.448,816.524 543.519,812.336C547.422,808.32 549.423,803.189 549.423,796.905C549.423,791.278 547.322,782.198 542.99,769.695C538.665,757.215 528.562,744.436 512.519,731.488C511.255,730.468 512.028,718.993 510.832,718.056L564.678,679.48C564.675,679.603 568.076,690.418 568.09,694.708C568.108,700.095 570.648,706.055 576.061,712.452C591.812,732.129 600.917,752.387 603.287,773.251C604.044,780.621 606.571,785.684 610.484,788.63C613.206,790.678 616.642,791.765 620.829,791.765C626.719,791.765 631.62,788.505 635.22,781.553C638.394,775.422 640.004,768.408 640.004,760.503C640.004,756.959 643.332,735.945 642.633,732.725L702.104,693.946C701.26,695.838 703.789,710.127 704.58,714.943C705.33,719.512 708.88,724.415 711.398,727.231C714.955,731.209 716.902,734.782 716.902,738.119C716.902,744.615 711.427,761.405 700.733,788.571C689.887,816.122 674.617,844.568 654.934,873.916C635.27,903.235 613.737,928.295 590.328,949.088C566.956,969.847 545.53,985.317 526.031,995.473C526.025,995.476 526.019,995.479 526.013,995.482C520.579,998.36 516.229,1001.49 512.94,1004.85C509.176,1008.7 507.433,1012.61 507.433,1016.45C507.433,1019.2 508.76,1021.35 511.685,1022.72C513.656,1023.65 516.6,1024.19 520.543,1024.19C527.486,1024.19 542.701,1018.18 566.03,1005.75C588.892,993.582 612.716,975.411 637.483,951.216C662.201,927.068 683.728,899.505 702.063,868.523C720.362,837.602 735.204,805.467 746.592,772.121C749.653,763.567 752.979,757.264 756.678,753.271C761.217,748.37 763.34,743.574 763.34,739.023C763.34,736.152 762.34,732.924 760.183,729.392C759.048,727.534 759.366,713.681 757.557,711.609L815.421,669.032C815.256,669.176 878.021,813.999 878.021,888.309C878.021,961.355 858.681,1029.72 820.011,1093.42C819.448,1094.35 819.429,1095.51 819.961,1096.45C820.492,1097.39 821.492,1097.98 822.575,1097.98L858.489,1105.97L529.012,1320.8L279.636,1320.8C252.285,1320.8 226.054,1309.94 206.714,1290.6C187.373,1271.26 176.508,1245.03 176.508,1217.68L176.508,787.171Z" style="fill:rgb(42,96,156);"/>
        </g>
        <path d="M276.007,813.716C281.69,813.716 286.931,810.651 289.718,805.699C292.505,800.746 292.405,794.676 289.456,789.818C242.511,712.493 219.016,629.5 219.016,540.824C219.016,448.834 242.428,365.338 289.344,290.363C292.379,285.513 292.542,279.399 289.77,274.394C286.998,269.39 281.728,266.284 276.007,266.284C276.007,266.284 237.68,266.284 237.68,266.284C232.666,266.284 227.952,268.674 224.988,272.719C200.213,306.538 180.997,347.436 167.499,395.489C154.171,442.939 147.503,491.566 147.503,541.374C147.503,641.581 173.276,730.013 224.604,806.731C227.524,811.096 232.429,813.716 237.68,813.716C237.68,813.716 276.007,813.716 276.007,813.716ZM790.544,789.818C787.595,794.676 787.495,800.746 790.282,805.699C793.069,810.651 798.31,813.716 803.993,813.716C803.993,813.716 842.32,813.716 842.32,813.716C847.571,813.716 852.476,811.096 855.396,806.731C906.724,730.013 932.497,641.581 932.497,541.374C932.497,491.566 925.829,442.939 912.501,395.489C899.003,347.436 879.787,306.538 855.012,272.719C852.048,268.674 847.334,266.284 842.32,266.284C842.32,266.284 803.993,266.284 803.993,266.284C798.272,266.284 793.002,269.39 790.23,274.394C787.458,279.399 787.621,285.513 790.656,290.363C837.572,365.338 860.984,448.834 860.984,540.824C860.984,629.5 837.489,712.493 790.544,789.818ZM742.286,355.068C742.286,349.655 740.665,343.487 736.599,336.83C732.556,330.209 725.638,322.513 715.53,314.036C697.31,298.754 682.831,292.633 673.721,292.633C665.846,292.633 659.291,295.214 653.922,300.016C648.491,304.875 644.905,312.03 644.905,322.151C644.905,329.827 648.199,338.877 656.71,348.394C658.67,350.585 660.504,352.104 660.504,353.942C660.504,361.481 653.629,380.797 641.219,412.324C628.012,445.871 609.397,480.497 585.43,516.231C561.565,551.815 535.449,582.244 507.038,607.479C478.825,632.539 452.998,651.266 429.46,663.525C429.427,663.542 429.395,663.559 429.363,663.576C421.355,667.817 414.987,672.494 410.141,677.442C402.801,684.936 399.861,692.773 399.861,700.267C399.861,708.349 403.447,714.898 412.051,718.938C415.65,720.629 420.975,721.908 428.173,721.908C437.628,721.908 458.647,714.471 490.414,697.555C519.725,681.946 550.314,658.705 582.068,627.683C613.565,596.913 641.003,561.795 664.366,522.316C687.543,483.152 706.343,442.452 720.772,400.218C723.885,391.533 727.039,385.011 730.8,380.951C738.973,372.127 742.286,363.261 742.286,355.068ZM476.109,427.09C476.109,419.289 473.45,406.639 467.443,389.304C461.478,372.089 447.856,354.214 425.727,336.354C413.186,326.233 403.151,319.213 395.714,315.164C387.982,310.955 381.799,309.513 377.605,309.513C369.516,309.513 363.73,312.276 359.686,316.188C355.468,320.267 352.563,326.091 352.563,334.249C352.563,343.112 357.103,354.311 368.744,366.498C375.956,374.048 383.413,384.476 391.239,397.69C399.173,411.084 405.194,423.768 409.239,435.771C416.614,457.658 429.278,465.892 441.759,465.892C449.319,465.892 457.493,462.756 465.368,454.654C472.356,447.465 476.109,438.343 476.109,427.09ZM500.127,275.19C492.051,275.19 486.281,278.002 482.243,282.016C478.174,286.06 475.337,291.837 475.337,299.926C475.337,308.877 479.037,319.009 487.99,329.633C505.928,352.078 516.476,375.122 519.2,398.928C520.584,412.248 525.808,421.064 532.871,426.381C538.173,430.372 544.803,432.695 552.96,432.695C564.446,432.695 574.504,427.062 581.523,413.504C586.308,404.263 588.819,393.711 588.819,381.795C588.819,369.78 586.094,359.015 580.832,349.452C576.419,341.432 568.693,330.979 557.476,318.23C546.659,305.936 537.061,296.241 528.727,289.102C516.773,278.863 506.74,275.19 500.127,275.19Z" style="fill:white;fill-rule:nonzero;"/>
    </g>
</svg>
